<svg width="20" height="20" viewBox="0 0 20 20" fill="none" xmlns="http://www.w3.org/2000/svg">
<path d="M0.625 0.625H4.375L5.625 11.875H16.875L19.375 4.375H8.125" stroke="#E30613" stroke-miterlimit="10" stroke-linecap="round" stroke-linejoin="round"/>
<path d="M6.25 19.375C7.28553 19.375 8.125 18.5355 8.125 17.5C8.125 16.4645 7.28553 15.625 6.25 15.625C5.21447 15.625 4.375 16.4645 4.375 17.5C4.375 18.5355 5.21447 19.375 6.25 19.375Z" stroke="#E30613" stroke-miterlimit="10" stroke-linecap="round" stroke-linejoin="round"/>
<path d="M16.25 19.375C17.2855 19.375 18.125 18.5355 18.125 17.5C18.125 16.4645 17.2855 15.625 16.25 15.625C15.2145 15.625 14.375 16.4645 14.375 17.5C14.375 18.5355 15.2145 19.375 16.25 19.375Z" stroke="#E30613" stroke-miterlimit="10" stroke-linecap="round" stroke-linejoin="round"/>
</svg>
