<svg width="20" height="21" viewBox="0 0 20 21" fill="none" xmlns="http://www.w3.org/2000/svg">
<path d="M15.075 13.525L14.5632 14.2074L15.1564 14.8204L18.9064 18.6954L18.9121 18.7013L18.9179 18.7071C18.9863 18.7756 19 18.8361 19 18.875C19 18.9139 18.9863 18.9744 18.9179 19.0429C18.9066 19.0541 18.8726 19.0802 18.8161 19.1028C18.7904 19.1131 18.7676 19.1195 18.751 19.123C18.7507 19.1231 18.7503 19.1232 18.75 19.1232C18.7497 19.1232 18.7493 19.1231 18.749 19.123C18.7324 19.1195 18.7096 19.1131 18.6839 19.1028C18.6274 19.0802 18.5934 19.0541 18.5821 19.0429L14.8321 15.2929L14.1922 14.653L13.4918 15.226C12.3179 16.1865 10.6749 16.75 8.875 16.75C4.55228 16.75 1 13.1977 1 8.875C1 4.55228 4.55228 1 8.875 1C13.1793 1 16.625 4.53371 16.625 8.875C16.625 10.6512 16.0747 12.192 15.075 13.525ZM1.5 8.875C1.5 12.9529 4.84872 16.125 8.875 16.125C12.9013 16.125 16.25 12.9529 16.25 8.875C16.25 4.82272 12.9273 1.5 8.875 1.5C4.82272 1.5 1.5 4.82272 1.5 8.875Z" fill="#e30613" stroke="#e30613" stroke-width="2" stroke-linecap="round"/>
</svg>
