<svg width="26" height="26" viewBox="0 0 26 26" fill="none" xmlns="http://www.w3.org/2000/svg">
<path d="M1.75 1.75H6.25L7.75 15.25H21.25L24.25 6.25H10.75" stroke="#2F2F2F" stroke-width="2" stroke-miterlimit="10" stroke-linecap="round" stroke-linejoin="round"/>
<path d="M8.5 24.25C9.74264 24.25 10.75 23.2426 10.75 22C10.75 20.7574 9.74264 19.75 8.5 19.75C7.25736 19.75 6.25 20.7574 6.25 22C6.25 23.2426 7.25736 24.25 8.5 24.25Z" stroke="#2F2F2F" stroke-width="2" stroke-miterlimit="10" stroke-linecap="round" stroke-linejoin="round"/>
<path d="M20.5 24.25C21.7426 24.25 22.75 23.2426 22.75 22C22.75 20.7574 21.7426 19.75 20.5 19.75C19.2574 19.75 18.25 20.7574 18.25 22C18.25 23.2426 19.2574 24.25 20.5 24.25Z" stroke="#2F2F2F" stroke-width="2" stroke-miterlimit="10" stroke-linecap="round" stroke-linejoin="round"/>
</svg>
