<svg width="32" height="24" viewBox="0 0 32 24" fill="none" xmlns="http://www.w3.org/2000/svg">
<path d="M14.223 14C14.9596 17.2459 17.4505 19.8255 20.6463 20.6891L20.104 22.316C19.967 22.725 19.586 23 19.155 23H6.15497C5.69597 23 5.29597 22.688 5.18497 22.243L3.12396 14H14.223Z" fill="#E30613"/>
<path d="M14 12C14 10.5631 14.3367 9.20494 14.9355 7.99998H7.429L10.848 2.52998C11.14 2.06198 10.998 1.44498 10.53 1.15198C10.062 0.85998 9.445 1.00098 9.152 1.46998L5.071 7.99998H2C1.448 7.99998 1 8.44798 1 8.99998V11C1 11.552 1.448 12 2 12H14Z" fill="#E30613"/>
<path d="M16.9222 5.36212C17.4148 4.91085 17.9578 4.5137 18.5417 4.18007L16.848 1.46998C16.555 1.00198 15.938 0.85998 15.47 1.15198C15.001 1.44498 14.859 2.06198 15.152 2.52998L16.9222 5.36212Z" fill="#E30613"/>
<ellipse cx="23" cy="11.9999" rx="7" ry="7.00019" fill="#E30613"/>
</svg>
