<svg width="11" height="12" viewBox="0 0 11 12" fill="none" xmlns="http://www.w3.org/2000/svg">
<path d="M10.525 0.975C10.225 0.675 9.775 0.675 9.475 0.975L5.5 4.95L1.525 0.975C1.225 0.675 0.775 0.675 0.475 0.975C0.175 1.275 0.175 1.725 0.475 2.025L4.45 6L0.475 9.975C0.175 10.275 0.175 10.725 0.475 11.025C0.625 11.175 0.775 11.25 1 11.25C1.225 11.25 1.375 11.175 1.525 11.025L5.5 7.05L9.475 11.025C9.625 11.175 9.85 11.25 10 11.25C10.15 11.25 10.375 11.175 10.525 11.025C10.825 10.725 10.825 10.275 10.525 9.975L6.55 6L10.525 2.025C10.825 1.725 10.825 1.275 10.525 0.975Z" fill="#E30613"/>
</svg>
