<svg width="20" height="20" viewBox="0 0 20 20" fill="none" xmlns="http://www.w3.org/2000/svg">
    <circle cx="10" cy="10" r="10" transform="rotate(-180 10 10)" fill="#2F2F2F"/>
    <path d="M10 20C15.5 20 20 15.5 20 10C20 4.5 15.5 -3.93402e-07 10 -8.74228e-07C4.5 -1.35505e-06 1.35505e-06 4.5 8.74228e-07 10C3.93402e-07 15.5 4.5 20 10 20ZM10 5C10.75 5 11.25 5.5 11.25 6.25C11.25 7 10.75 7.5 10 7.5C9.25 7.5 8.75 7 8.75 6.25C8.75 5.5 9.25 5 10 5ZM8.75 8.75L11.25 8.75L11.25 15L8.75 15L8.75 8.75Z" fill="#F0F0F0"/>
</svg>
