<svg width="32" height="48" viewBox="0 0 32 48" fill="none" xmlns="http://www.w3.org/2000/svg">
<path d="M30.1176 0H1.88235C0.842353 0 0 5.14023e-05 0 5.14023e-05V46.9326C0 47.3209 0.185412 47.6771 0.485647 47.8659C0.783059 48.0537 1.15012 48.0441 1.44094 47.8382L16 37.5237L30.56 47.8371C30.7125 47.9449 30.8847 47.9993 31.0588 47.9993C31.216 47.9993 31.3732 47.9545 31.5144 47.8659C31.8146 47.6771 32 47.3209 32 46.9326V5.14023e-05C32 5.14023e-05 31.1576 0 30.1176 0Z" fill="#E30613"/>
<path d="M11.325 28.1396H13.016L20.787 12.5596H19.096L11.325 28.1396ZM11.287 19.6846C13.016 19.6846 14.536 18.6016 14.536 16.5686C14.536 14.5356 13.016 13.4526 11.287 13.4526C9.539 13.4526 8 14.5356 8 16.5686C8 18.6016 9.539 19.6846 11.287 19.6846ZM11.287 18.0696C10.261 18.0696 9.767 17.3666 9.767 16.5686C9.767 15.7706 10.261 15.0676 11.287 15.0676C12.294 15.0676 12.769 15.7706 12.769 16.5686C12.769 17.3666 12.294 18.0696 11.287 18.0696ZM20.806 27.2466C22.535 27.2466 24.055 26.1636 24.055 24.1306C24.055 22.0976 22.535 21.0146 20.806 21.0146C19.077 21.0146 17.538 22.0976 17.538 24.1306C17.538 26.1636 19.077 27.2466 20.806 27.2466ZM20.806 25.6316C19.78 25.6316 19.286 24.9286 19.286 24.1306C19.286 23.3326 19.78 22.6296 20.806 22.6296C21.813 22.6296 22.307 23.3326 22.307 24.1306C22.307 24.9286 21.813 25.6316 20.806 25.6316Z" fill="white"/>
</svg>
