<svg width="25" height="24" viewBox="0 0 25 24" fill="none" xmlns="http://www.w3.org/2000/svg">
<g clip-path="url(#clip0)">
<path d="M8.88575 5.25V0.75H16.5336V5.25" stroke="#E30613" stroke-linecap="round" stroke-linejoin="round"/>
<path d="M2.76747 5.25H22.6519C23.0575 5.25 23.4466 5.40804 23.7334 5.68934C24.0203 5.97064 24.1814 6.35218 24.1814 6.75V14.25H1.2379V6.75C1.2379 6.35218 1.39905 5.97064 1.6859 5.68934C1.97275 5.40804 2.3618 5.25 2.76747 5.25V5.25Z" stroke="#E30613" stroke-linecap="round" stroke-linejoin="round"/>
<path d="M22.6519 17.25V20.25C22.6519 20.6478 22.4907 21.0294 22.2039 21.3107C21.917 21.592 21.528 21.75 21.1223 21.75H4.29704C3.89137 21.75 3.50232 21.592 3.21547 21.3107C2.92862 21.0294 2.76747 20.6478 2.76747 20.25V17.25" stroke="#E30613" stroke-linecap="round" stroke-linejoin="round"/>
<path d="M8.88575 5.25V0.75H16.5336V5.25" stroke="#E30613" stroke-linecap="round" stroke-linejoin="round"/>
<path d="M2.76747 5.25H22.6519C23.0575 5.25 23.4466 5.40804 23.7334 5.68934C24.0203 5.97064 24.1814 6.35218 24.1814 6.75V14.25H1.2379V6.75C1.2379 6.35218 1.39905 5.97064 1.6859 5.68934C1.97275 5.40804 2.3618 5.25 2.76747 5.25V5.25Z" stroke="#E30613" stroke-linecap="round" stroke-linejoin="round"/>
<path d="M22.6519 17.25V20.25C22.6519 20.6478 22.4907 21.0294 22.2039 21.3107C21.917 21.592 21.528 21.75 21.1223 21.75H4.29704C3.89137 21.75 3.50232 21.592 3.21547 21.3107C2.92862 21.0294 2.76747 20.6478 2.76747 20.25V17.25" stroke="#E30613" stroke-linecap="round" stroke-linejoin="round"/>
</g>
<defs>
<clipPath id="clip0">
<rect width="24.4731" height="24" fill="white" transform="translate(0.473114)"/>
</clipPath>
</defs>
</svg>
