<svg width="30" height="30" viewBox="0 0 30 30" fill="none" xmlns="http://www.w3.org/2000/svg">
<path d="M15 0C6.75 0 0 6.75 0 15C0 23.25 6.75 30 15 30C23.25 30 30 23.25 30 15C30 6.75 23.25 0 15 0ZM15 26.25C8.8125 26.25 3.75 21.1875 3.75 15C3.75 8.8125 8.8125 3.75 15 3.75C21.1875 3.75 26.25 8.8125 26.25 15C26.25 21.1875 21.1875 26.25 15 26.25Z" fill="#E30613"/>
<path d="M16.875 7.5H13.125V16.875H16.875V7.5Z" fill="#E30613"/>
<path d="M15 22.5C16.0355 22.5 16.875 21.6605 16.875 20.625C16.875 19.5895 16.0355 18.75 15 18.75C13.9645 18.75 13.125 19.5895 13.125 20.625C13.125 21.6605 13.9645 22.5 15 22.5Z" fill="#E30613"/>
</svg>
