<svg width="313" height="415" viewBox="0 0 313 415" fill="none" xmlns="http://www.w3.org/2000/svg">
<path d="M156.25 361.77C241.44 361.77 310.5 292.71 310.5 207.52C310.5 122.33 241.44 53.27 156.25 53.27C71.0601 53.27 2 122.33 2 207.52C2 292.71 71.0601 361.77 156.25 361.77Z" fill="#E8E8E8"/>
<path d="M144.6 222.27V247.98" stroke="#636363" stroke-width="8" stroke-miterlimit="10" stroke-linecap="round"/>
<path d="M167.91 222.27V247.98" stroke="#636363" stroke-width="8" stroke-miterlimit="10" stroke-linecap="round"/>
<path d="M310.51 2H176.07C170.766 2 165.679 4.10714 161.928 7.85786C158.177 11.6086 156.07 16.6957 156.07 22V105" stroke="#767474" stroke-width="4" stroke-miterlimit="10" stroke-linecap="round"/>
<path d="M145.39 105H167.12C168.446 105 169.718 105.527 170.656 106.464C171.593 107.402 172.12 108.674 172.12 110V121.27H140.39V110C140.39 108.674 140.917 107.402 141.854 106.464C142.792 105.527 144.064 105 145.39 105Z" fill="#767474"/>
<path d="M132.83 121.31H179.69C181.016 121.31 182.288 121.837 183.225 122.775C184.163 123.712 184.69 124.984 184.69 126.31V162.31H127.83V126.31C127.83 124.984 128.357 123.712 129.294 122.775C130.232 121.837 131.504 121.31 132.83 121.31Z" fill="#919191"/>
<path opacity="0.3" d="M184.68 162.27H173.31C170.948 154.039 166.813 146.425 161.195 139.962C155.577 133.499 148.612 128.345 140.79 124.86L132.79 121.31H179.64C180.966 121.31 182.238 121.837 183.176 122.775C184.113 123.712 184.64 124.984 184.64 126.31L184.68 162.27Z" fill="#777777"/>
<path d="M188.79 162.27H123.73C121.09 162.27 118.95 164.41 118.95 167.05V167.06C118.95 169.7 121.09 171.84 123.73 171.84H188.79C191.43 171.84 193.57 169.7 193.57 167.06V167.05C193.57 164.41 191.43 162.27 188.79 162.27Z" fill="#767474"/>
<path d="M2 413H136.44C141.744 413 146.831 410.893 150.582 407.142C154.333 403.391 156.44 398.304 156.44 393V310" stroke="#767474" stroke-width="4" stroke-miterlimit="10" stroke-linecap="round"/>
<path d="M167.12 310H145.39C144.064 310 142.792 309.473 141.854 308.536C140.917 307.598 140.39 306.326 140.39 305V293.74H172.12V305C172.12 306.326 171.593 307.598 170.656 308.536C169.718 309.473 168.446 310 167.12 310Z" fill="#767474"/>
<path d="M179.68 293.73H132.82C131.494 293.73 130.222 293.203 129.284 292.266C128.347 291.328 127.82 290.056 127.82 288.73V252.73H184.68V288.73C184.68 290.056 184.153 291.328 183.215 292.266C182.278 293.203 181.006 293.73 179.68 293.73Z" fill="#919191"/>
<path opacity="0.3" d="M184.68 252.77H173.31C170.947 261.002 166.811 268.617 161.194 275.081C155.576 281.545 148.612 286.702 140.79 290.19L132.79 293.74H179.64C180.966 293.74 182.238 293.213 183.176 292.276C184.113 291.338 184.64 290.066 184.64 288.74L184.68 252.77Z" fill="#777777"/>
<path d="M123.72 252.77H188.78C191.42 252.77 193.56 250.63 193.56 247.99V247.98C193.56 245.34 191.42 243.2 188.78 243.2H123.72C121.08 243.2 118.94 245.34 118.94 247.98V247.99C118.94 250.63 121.08 252.77 123.72 252.77Z" fill="#767474"/>
<path d="M86.01 204.52H98.72" stroke="#B5B5B5" stroke-width="4" stroke-miterlimit="10" stroke-linecap="round"/>
<path d="M86.9301 185.96L98.7201 190.72" stroke="#B5B5B5" stroke-width="4" stroke-miterlimit="10" stroke-linecap="round"/>
<path d="M86.9301 223.09L98.7201 218.33" stroke="#B5B5B5" stroke-width="4" stroke-miterlimit="10" stroke-linecap="round"/>
<path d="M226.5 204.52H213.79" stroke="#B5B5B5" stroke-width="4" stroke-miterlimit="10" stroke-linecap="round"/>
<path d="M225.58 185.96L213.79 190.72" stroke="#B5B5B5" stroke-width="4" stroke-miterlimit="10" stroke-linecap="round"/>
<path d="M225.58 223.09L213.79 218.33" stroke="#B5B5B5" stroke-width="4" stroke-miterlimit="10" stroke-linecap="round"/>
</svg>
