<svg width="44" height="43" viewBox="0 0 44 43" fill="none" xmlns="http://www.w3.org/2000/svg">
<path d="M40.626 26.8574C38.643 24.8601 35.333 25.1865 33.7759 27.5492C32.2169 25.1837 28.9069 24.8619 26.9258 26.8574C25.1893 28.6065 25.1893 31.4428 26.9258 33.191L33.775 40.091L40.626 33.191C42.3625 31.4419 42.3625 28.6065 40.626 26.8574Z" stroke="#E30613" stroke-width="3" stroke-miterlimit="10" stroke-linecap="square" stroke-linejoin="round"/>
<path d="M9.31799 13.7273L16.5648 1" stroke="#E30613" stroke-width="3" stroke-miterlimit="10" stroke-linejoin="round"/>
<path d="M34.229 13.7273L26.9822 1" stroke="#E30613" stroke-width="3" stroke-miterlimit="10" stroke-linejoin="round"/>
<path d="M22.9059 41H5.69458V21" stroke="#E30613" stroke-width="3" stroke-miterlimit="10" stroke-linecap="square" stroke-linejoin="round"/>
<path d="M41.9288 21H2.07117V13.7273H41.9288V21Z" stroke="#E30613" stroke-width="3" stroke-miterlimit="10" stroke-linecap="square" stroke-linejoin="round"/>
<path opacity="0.08" d="M5.06055 14H40.9324V32C40.9324 36.9706 36.903 41 31.9324 41H5.06055V14Z" fill="#E30613"/>
</svg>
