<svg width="52" height="52" viewBox="0 0 52 52" fill="none" xmlns="http://www.w3.org/2000/svg">
<path d="M8 40.4996C9.82495 37.4592 12.449 34.9345 15.6086 33.1792C18.7682 31.424 22.352 30.5 26.0001 30.5C29.6482 30.5 33.232 31.4241 36.3915 33.1794C39.5511 34.9348 42.1751 37.4595 44 40.5" stroke="#E30613" stroke-width="3" stroke-linecap="round" stroke-linejoin="round"/>
<path d="M26.5 30.6001C31.7467 30.6001 36 26.3468 36 21.1001C36 15.8534 31.7467 11.6001 26.5 11.6001C21.2533 11.6001 17 15.8534 17 21.1001C17 26.3468 21.2533 30.6001 26.5 30.6001Z" stroke="#E30613" stroke-width="3" stroke-miterlimit="10"/>
<path d="M26 50C39.2548 50 50 39.2548 50 26C50 12.7452 39.2548 2 26 2C12.7452 2 2 12.7452 2 26C2 39.2548 12.7452 50 26 50Z" stroke="#E30613" stroke-width="3" stroke-miterlimit="10" stroke-linecap="square"/>
</svg>
