<svg width="16" height="19" viewBox="0 0 16 19" fill="none" xmlns="http://www.w3.org/2000/svg">
<path d="M2.73113 13.5326L2.72456 13.5261L2.71775 13.5198C1.24484 12.1637 0.5 10.2805 0.5 8.27141C0.5 4.17092 3.78409 0.908691 7.93031 0.908691C12.0792 0.908691 15.3532 4.17055 15.2475 8.25848L15.2473 8.25848V8.27141C15.2473 10.2805 14.5025 12.1637 13.0296 13.5198L12.8682 13.6683V13.6937C12.8545 13.707 12.8394 13.7215 12.8231 13.7371C12.7006 13.8541 12.5226 14.0182 12.3048 14.2158C11.87 14.6102 11.2879 15.1279 10.7005 15.6472C10.1655 16.1201 9.61853 16.6008 9.1779 16.9881C8.6647 17.4392 8.29575 17.7635 8.25802 17.8009C8.20544 17.853 8.091 17.9087 7.91615 17.9087C7.75344 17.9087 7.58518 17.8588 7.45418 17.768C7.24848 17.579 6.24628 16.6823 5.2316 15.7745L5.09159 15.6492L5.09032 15.648C4.51007 15.1289 3.93016 14.61 3.48814 14.2138C3.26694 14.0156 3.08053 13.8483 2.946 13.7271C2.87868 13.6665 2.82475 13.6178 2.78608 13.5827C2.7595 13.5585 2.74401 13.5443 2.73649 13.5374C2.73147 13.5328 2.72999 13.5314 2.73113 13.5326ZM5.16451 8.27141C5.16451 9.78714 6.41202 11.0179 7.93031 11.0179C9.4486 11.0179 10.6961 9.78714 10.6961 8.27141C10.6961 6.75567 9.4486 5.52492 7.93031 5.52492C6.41202 5.52492 5.16451 6.75567 5.16451 8.27141Z" stroke="#E30613"/>
</svg>
