<svg width="32" height="32" viewBox="0 0 32 32" fill="none" xmlns="http://www.w3.org/2000/svg">
<path d="M1 1H7L9 19H27L31 7H13" stroke="#E30613" stroke-width="2" stroke-miterlimit="10" stroke-linecap="round" stroke-linejoin="round"/>
<path d="M10 31C11.6569 31 13 29.6569 13 28C13 26.3431 11.6569 25 10 25C8.34315 25 7 26.3431 7 28C7 29.6569 8.34315 31 10 31Z" stroke="#E30613" stroke-width="2" stroke-miterlimit="10" stroke-linecap="round" stroke-linejoin="round"/>
<path d="M26 31C27.6569 31 29 29.6569 29 28C29 26.3431 27.6569 25 26 25C24.3431 25 23 26.3431 23 28C23 29.6569 24.3431 31 26 31Z" stroke="#E30613" stroke-width="2" stroke-miterlimit="10" stroke-linecap="round" stroke-linejoin="round"/>
</svg>
