<svg xmlns="http://www.w3.org/2000/svg" fill="none" viewBox="0 0 67 41">
  <mask id="a" width="6" height="6" x="60.91" y="31.66" fill="#000" maskUnits="userSpaceOnUse">
    <path fill="#fff" d="M60.91 31.66h6v6h-6z"/>
    <path d="M61.9 34.52c0-1.03.79-1.86 1.75-1.86s1.73.83 1.73 1.86c0 1.02-.77 1.85-1.73 1.85s-1.74-.83-1.74-1.85Z"/>
  </mask>
  <path stroke="#E30613" stroke-miterlimit="3.86" stroke-width="2" d="M61.9 34.52c0-1.03.79-1.86 1.75-1.86s1.73.83 1.73 1.86c0 1.02-.77 1.85-1.73 1.85s-1.74-.83-1.74-1.85Z" mask="url(#a)"/>
  <mask id="b" fill="#fff">
    <path fill-rule="evenodd" d="M62.84 35.63v-2.25h.9c.22 0 .38.02.48.06.1.04.19.11.25.22.06.1.09.22.09.35 0 .17-.05.3-.14.42-.1.1-.23.18-.42.2.1.06.17.13.23.2.06.06.14.18.24.36l.26.44h-.51l-.3-.5a3.12 3.12 0 0 0-.23-.32.33.33 0 0 0-.13-.1.65.65 0 0 0-.21-.02h-.09v.94h-.42Zm.42-1.36h.32c.2 0 .33 0 .38-.03a.23.23 0 0 0 .12-.1c.02-.04.04-.1.04-.16a.26.26 0 0 0-.06-.18.25.25 0 0 0-.16-.1h-.64v.57Z" clip-rule="evenodd"/>
  </mask>
  <path fill="#E30613" fill-rule="evenodd" stroke="#E30613" stroke-width="2" d="M62.84 35.63v-2.25h.9c.22 0 .38.02.48.06.1.04.19.11.25.22.06.1.09.22.09.35 0 .17-.05.3-.14.42-.1.1-.23.18-.42.2.1.06.17.13.23.2.06.06.14.18.24.36l.26.44h-.51l-.3-.5a3.12 3.12 0 0 0-.23-.32.33.33 0 0 0-.13-.1.65.65 0 0 0-.21-.02h-.09v.94h-.42Zm.42-1.36h.32c.2 0 .33 0 .38-.03a.23.23 0 0 0 .12-.1c.02-.04.04-.1.04-.16a.26.26 0 0 0-.06-.18.25.25 0 0 0-.16-.1h-.64v.57Z" clip-rule="evenodd" mask="url(#b)"/>
  <mask id="c" fill="#fff">
    <path d="M0 20.3C0 9.32 14.7.4 32.82.4c18.13 0 32.82 8.9 32.82 19.9 0 11-14.7 19.92-32.82 19.92S0 31.31 0 20.31Z"/>
  </mask>
  <path fill="#E30613" stroke="#E30613" stroke-width="2" d="M0 20.3C0 9.32 14.7.4 32.82.4c18.13 0 32.82 8.9 32.82 19.9 0 11-14.7 19.92-32.82 19.92S0 31.31 0 20.31Z" mask="url(#c)"/>
  <mask id="d" fill="#fff">
    <path d="M5.15 20.3c0-10.29 12.45-18.63 27.67-18.63 15.22 0 27.56 8.34 27.56 18.64S48.04 38.95 32.82 38.95C17.6 38.95 5.15 30.6 5.15 20.3Z"/>
  </mask>
  <path fill="#fff" stroke="#E30613" stroke-width="2" d="M5.15 20.3c0-10.29 12.45-18.63 27.67-18.63 15.22 0 27.56 8.34 27.56 18.64S48.04 38.95 32.82 38.95C17.6 38.95 5.15 30.6 5.15 20.3Z" mask="url(#d)"/>
  <mask id="e" fill="#fff">
    <path d="M9.97 30.82c4.94 4.91 13.38 8.66 22.85 8.66 5.2 0 9.62-1.26 13.76-2.95-.3-.08 3.28-5.27-4.21-5.04-8.98.27-22.43 8.08-32.4-.67Z"/>
  </mask>
  <path fill="#E30613" stroke="#E30613" stroke-width="2" d="M9.97 30.82c4.94 4.91 13.38 8.66 22.85 8.66 5.2 0 9.62-1.26 13.76-2.95-.3-.08 3.28-5.27-4.21-5.04-8.98.27-22.43 8.08-32.4-.67Z" mask="url(#e)"/>
  <mask id="f" fill="#fff">
    <path d="M43.56 10.14 42.38 12a1.71 1.71 0 0 0-.82-.19c-.66.01-1.12.36-1.36 1.06a8.8 8.8 0 0 0-.36 1.7h1.62l-.67 1.96h-1.25c-.3 2.15-.58 4.24-.89 6.39-.4 2.31-1.12 4.17-2.04 5.32-1.17 1.46-2.95 2.3-5.34 2.54a11.97 11.97 0 0 0 2.12-4.3c.42-1.36.84-3.21 1.15-5.3l.63-4.65h-1.43l.53-1.96 1.2-.01c.31-1.93.88-2.93 1.7-3.66s2.19-1.13 4.05-1.15a5.28 5.28 0 0 1 2.34.39Z"/>
  </mask>
  <path fill="#E30613" stroke="#E30613" stroke-width="2" d="M43.56 10.14 42.38 12a1.71 1.71 0 0 0-.82-.19c-.66.01-1.12.36-1.36 1.06a8.8 8.8 0 0 0-.36 1.7h1.62l-.67 1.96h-1.25c-.3 2.15-.58 4.24-.89 6.39-.4 2.31-1.12 4.17-2.04 5.32-1.17 1.46-2.95 2.3-5.34 2.54a11.97 11.97 0 0 0 2.12-4.3c.42-1.36.84-3.21 1.15-5.3l.63-4.65h-1.43l.53-1.96 1.2-.01c.31-1.93.88-2.93 1.7-3.66s2.19-1.13 4.05-1.15a5.28 5.28 0 0 1 2.34.39Z" mask="url(#f)"/>
  <mask id="g" fill="#fff">
    <path d="m20.71 10.33-.1 2.9C19.26 12 18 11.37 16.73 11.37c-.51 0-.96.15-1.36.46a1.6 1.6 0 0 0-.64 1.3c0 .83.49 1.6 1.48 2.3.9.64 1.82 1.27 2.74 1.89a4 4 0 0 1 1.48 3.11c0 1.85-.88 3.29-2.64 4.32a9.09 9.09 0 0 1-4.81 1.28c-1.42 0-2.87-.35-4.35-1.04l.56-3.28c1.42 1.5 2.63 2.4 3.93 2.4.6 0 .98-.16 1.44-.48.52-.36.77-.84.77-1.45 0-.53-.49-1.16-1.48-1.9a50.97 50.97 0 0 1-2.72-2.15 4.38 4.38 0 0 1-1.48-3.1c0-1.69.7-3.03 2.07-4a7.31 7.31 0 0 1 4.32-1.28c.55 0 1.34.1 2.38.3 1.04.19 1.78.28 2.3.28Z"/>
  </mask>
  <path fill="#E30613" stroke="#E30613" stroke-width="2" d="m20.71 10.33-.1 2.9C19.26 12 18 11.37 16.73 11.37c-.51 0-.96.15-1.36.46a1.6 1.6 0 0 0-.64 1.3c0 .83.49 1.6 1.48 2.3.9.64 1.82 1.27 2.74 1.89a4 4 0 0 1 1.48 3.11c0 1.85-.88 3.29-2.64 4.32a9.09 9.09 0 0 1-4.81 1.28c-1.42 0-2.87-.35-4.35-1.04l.56-3.28c1.42 1.5 2.63 2.4 3.93 2.4.6 0 .98-.16 1.44-.48.52-.36.77-.84.77-1.45 0-.53-.49-1.16-1.48-1.9a50.97 50.97 0 0 1-2.72-2.15 4.38 4.38 0 0 1-1.48-3.1c0-1.69.7-3.03 2.07-4a7.31 7.31 0 0 1 4.32-1.28c.55 0 1.34.1 2.38.3 1.04.19 1.78.28 2.3.28Z" mask="url(#g)"/>
  <mask id="h" fill="#fff">
    <path fill-rule="evenodd" d="M33.3 19.5a7.2 7.2 0 0 1-2.75 4.84c-1.5 1.25-2.66 1.88-4.63 1.88-1.5 0-2.66-.37-3.48-1.13-.9-.83-1.25-1.89-1.05-3.43a7.37 7.37 0 0 1 2.78-5.04 6.8 6.8 0 0 1 4.78-1.76A4.7 4.7 0 0 1 32.31 16c.86.82 1.2 2 1 3.51Zm-4.32.01c.11-.84.17-1.42.16-1.76-.06-.76-.34-1.15-.84-1.15-1.17 0-2 1.85-2.5 5.55-.21 1.64.06 2.45.83 2.45.66 0 1.22-.7 1.69-2.12.3-.9.52-1.89.66-2.97Z" clip-rule="evenodd"/>
  </mask>
  <path fill="#E30613" fill-rule="evenodd" stroke="#E30613" stroke-width="2" d="M33.3 19.5a7.2 7.2 0 0 1-2.75 4.84c-1.5 1.25-2.66 1.88-4.63 1.88-1.5 0-2.66-.37-3.48-1.13-.9-.83-1.25-1.89-1.05-3.43a7.37 7.37 0 0 1 2.78-5.04 6.8 6.8 0 0 1 4.78-1.76A4.7 4.7 0 0 1 32.31 16c.86.82 1.2 2 1 3.51Zm-4.32.01c.11-.84.17-1.42.16-1.76-.06-.76-.34-1.15-.84-1.15-1.17 0-2 1.85-2.5 5.55-.21 1.64.06 2.45.83 2.45.66 0 1.22-.7 1.69-2.12.3-.9.52-1.89.66-2.97Z" clip-rule="evenodd" mask="url(#h)"/>
  <mask id="i" fill="#fff">
    <path fill-rule="evenodd" d="M47.25 14.7c-.24 1.33-.5 2.77-.77 4.1a47.88 47.88 0 0 0-.76 5.93c-.02.45-.01 1.04.02 1.3h-5c.28-.57.64-1.77.86-3.16.23-1.16.45-2.33.66-3.5.25-1.44.4-2.64.43-3.61 0-.35-.02-.77-.04-1.07h4.6Z" clip-rule="evenodd"/>
  </mask>
  <path fill="#E30613" fill-rule="evenodd" stroke="#E30613" stroke-width="2" d="M47.25 14.7c-.24 1.33-.5 2.77-.77 4.1a47.88 47.88 0 0 0-.76 5.93c-.02.45-.01 1.04.02 1.3h-5c.28-.57.64-1.77.86-3.16.23-1.16.45-2.33.66-3.5.25-1.44.4-2.64.43-3.61 0-.35-.02-.77-.04-1.07h4.6Z" clip-rule="evenodd" mask="url(#i)"/>
  <mask id="j" fill="#fff">
    <path fill-rule="evenodd" d="M57.84 17.08c-.02.87-.21 2.2-.56 3.98a25.39 25.39 0 0 0-.56 4.02c-.01.26.07.7.08.96h-4.72l.2-1.17a5.48 5.48 0 0 1-3.23 1.2c-.7 0-1.3-.16-1.8-.56a2.23 2.23 0 0 1-.76-1.81c.02-1.14.67-1.97 1.88-2.53l3.32-1.38a3.6 3.6 0 0 0 1.84-3.25c0-.13-.06-.24-.18-.35a.6.6 0 0 0-.38-.15c-.3 0-.56.22-.8.65a6.9 6.9 0 0 1-.8 1.15c-.43.43-1.02.65-1.76.65a1.4 1.4 0 0 1-.93-.34 1.07 1.07 0 0 1-.38-.89c.02-1.06.87-1.81 2.53-2.26 1-.27 2.22-.4 3.64-.4.93 0 1.7.16 2.28.5.74.42 1.1 1.08 1.09 1.98ZM53 20.28l-1.57 1.2c-.6.48-.9 1.05-.91 1.7-.02.62.31.93.99.93.6 0 .98-.56 1.16-1.69l.33-2.14Z" clip-rule="evenodd"/>
  </mask>
  <path fill="#E30613" fill-rule="evenodd" stroke="#E30613" stroke-width="2" d="M57.84 17.08c-.02.87-.21 2.2-.56 3.98a25.39 25.39 0 0 0-.56 4.02c-.01.26.07.7.08.96h-4.72l.2-1.17a5.48 5.48 0 0 1-3.23 1.2c-.7 0-1.3-.16-1.8-.56a2.23 2.23 0 0 1-.76-1.81c.02-1.14.67-1.97 1.88-2.53l3.32-1.38a3.6 3.6 0 0 0 1.84-3.25c0-.13-.06-.24-.18-.35a.6.6 0 0 0-.38-.15c-.3 0-.56.22-.8.65a6.9 6.9 0 0 1-.8 1.15c-.43.43-1.02.65-1.76.65a1.4 1.4 0 0 1-.93-.34 1.07 1.07 0 0 1-.38-.89c.02-1.06.87-1.81 2.53-2.26 1-.27 2.22-.4 3.64-.4.93 0 1.7.16 2.28.5.74.42 1.1 1.08 1.09 1.98ZM53 20.28l-1.57 1.2c-.6.48-.9 1.05-.91 1.7-.02.62.31.93.99.93.6 0 .98-.56 1.16-1.69l.33-2.14Z" clip-rule="evenodd" mask="url(#j)"/>
  <mask id="k" fill="#fff">
    <path fill-rule="evenodd" d="M44.57 13.17s7.3-.85 6.07-3.37c-1.23-2.52-6.07 3.37-6.07 3.37Z" clip-rule="evenodd"/>
  </mask>
  <path fill="#E30613" fill-rule="evenodd" stroke="#E30613" stroke-width="2" d="M44.57 13.17s7.3-.85 6.07-3.37c-1.23-2.52-6.07 3.37-6.07 3.37Z" clip-rule="evenodd" mask="url(#k)"/>
</svg>