<?xml version="1.0" encoding="UTF-8" standalone="no"?>
<svg
   xmlns:dc="http://purl.org/dc/elements/1.1/"
   xmlns:cc="http://creativecommons.org/ns#"
   xmlns:rdf="http://www.w3.org/1999/02/22-rdf-syntax-ns#"
   xmlns:svg="http://www.w3.org/2000/svg"
   xmlns="http://www.w3.org/2000/svg"
   xmlns:sodipodi="http://sodipodi.sourceforge.net/DTD/sodipodi-0.dtd"
   xmlns:inkscape="http://www.inkscape.org/namespaces/inkscape"
   version="1.1"
   id="svg2"
   xml:space="preserve"
   width="853.03998"
   height="258.05334"
   viewBox="0 0 853.03998 258.05334"
   sodipodi:docname="LOGO_SOFIA_AL_PASO_-_COLABORADORES_FINAL.eps"><metadata
     id="metadata8"><rdf:RDF><cc:Work
         rdf:about=""><dc:format>image/svg+xml</dc:format><dc:type
           rdf:resource="http://purl.org/dc/dcmitype/StillImage" /></cc:Work></rdf:RDF></metadata><defs
     id="defs6" /><sodipodi:namedview
     pagecolor="#ffffff"
     bordercolor="#666666"
     borderopacity="1"
     objecttolerance="10"
     gridtolerance="10"
     guidetolerance="10"
     inkscape:pageopacity="0"
     inkscape:pageshadow="2"
     inkscape:window-width="640"
     inkscape:window-height="480"
     id="namedview4" /><g
     id="g10"
     inkscape:groupmode="layer"
     inkscape:label="ink_ext_XXXXXX"
     transform="matrix(1.3333333,0,0,-1.3333333,0,258.05333)"><g
       id="g12"
       transform="scale(0.1)"><path
         d="M 1032.25,683.73 H 359.813 c -22.805,0 -41.29,24.739 -41.29,47.54 0,22.8 18.485,47.539 41.29,47.539 h 672.437 c 22.81,0 41.29,-24.739 41.29,-47.539 0,-22.801 -18.48,-47.54 -41.29,-47.54"
         style="fill:#e22224;fill-opacity:1;fill-rule:nonzero;stroke:none"
         id="path14" /><path
         d="M 760.914,885.09 H 41.2891 C 18.4844,885.09 0,901.441 0,924.238 c 0,22.793 18.4844,39.157 41.2891,39.157 H 760.914 c 22.809,0 41.289,-16.364 41.289,-39.157 0,-22.797 -18.48,-39.148 -41.289,-39.148"
         style="fill:#e22224;fill-opacity:1;fill-rule:nonzero;stroke:none"
         id="path16" /><path
         d="m 590.859,1080.86 h -307.57 c -22.805,0 -41.289,16.35 -41.289,39.14 0,22.8 18.484,39.16 41.289,39.16 h 307.57 c 22.809,0 41.289,-16.36 41.289,-39.16 0,-22.79 -18.48,-39.14 -41.289,-39.14"
         style="fill:#e22224;fill-opacity:1;fill-rule:nonzero;stroke:none"
         id="path18" /><path
         d="m 1851.19,671.82 c 28.47,0 56.7,0.621 84.64,1.821 -27.7,-1.2 -55.84,-1.821 -84.42,-1.821 -0.08,0 -0.15,0 -0.22,0 z m -39.11,0.418 c 0.77,-0.008 1.54,-0.027 2.32,-0.047 -0.78,0.02 -1.55,0.039 -2.32,0.047 z m 141.66,1260.442 c -1.43,0.07 -2.86,0.14 -4.3,0.21 1.44,-0.07 2.87,-0.14 4.3,-0.21 z m 25.22,-1.49 c -0.04,0 -0.08,0 -0.11,0 0.03,0 0.07,0 0.11,0 z m -52.25,2.71 c -1.65,0.06 -3.31,0.12 -4.97,0.18 1.66,-0.06 3.32,-0.12 4.97,-0.18 z m 4259.52,1.5 H 1911.94 c -7.12,0 -11.81,-0.2 -14.87,-0.58 0.44,-0.01 0.88,-0.03 1.32,-0.03 -15.76,0.37 -31.59,0.61 -47.51,0.61 -612.86,0 -1109.669,-282.86 -1109.669,-631.8 0,-334.666 457.049,-608.498 1035.149,-630.33 12.02,-1.168 24.32,-1.782 36.86,-1.782 h 3585.97 c 208.96,0 482.64,164.633 611.25,373.612 l 321.34,517.06 c 128.61,208.97 63.46,373.24 -145.55,373.24"
         style="fill:#e22224;fill-opacity:1;fill-rule:nonzero;stroke:none"
         id="path20" /><path
         d="m 3182.25,1236.01 99.99,-0.45 6.2,153.01 -1.26,0.03 z m 91.04,273.85 116.66,-0.52 8.04,-437.13 -119.73,0.56 1.69,81.41 -153.68,0.65 -56.62,-81.15 -117.27,0.54 320.91,435.64"
         style="fill:#ffffff;fill-opacity:1;fill-rule:nonzero;stroke:none"
         id="path22" /><path
         d="m 3588.03,1508.43 114.79,-0.5 -121.47,-338.58 205.51,-0.93 -35.26,-97.77 -319.68,1.41 156.11,436.37"
         style="fill:#ffffff;fill-opacity:1;fill-rule:nonzero;stroke:none"
         id="path24" /><path
         d="m 4383.67,1367.16 c 7.76,22.39 6.18,39.47 -4.71,51.14 -10.91,11.68 -29.91,17.58 -57.07,17.7 -8.25,0.04 -16.2,-0.44 -23.91,-1.45 -7.71,-0.95 -14.46,-1.85 -20.31,-2.64 -7.12,-1.18 -13.38,-2.41 -18.84,-3.61 l -42.7,-119.16 58.02,-0.28 c 13.98,-0.05 26.81,0.73 38.48,2.32 11.66,1.55 22,4.47 31.03,8.7 9.01,4.25 16.85,10.24 23.49,17.99 6.67,7.7 12.16,17.47 16.52,29.29 z m -253.75,-298.21 -114.17,0.54 151.24,422.92 c 19.33,4.82 37.47,8.59 54.4,11.38 16.92,2.78 37.12,5.33 60.58,7.67 23.45,2.35 48.75,3.49 75.95,3.34 29.19,-0.12 54.19,-3.63 75,-10.41 20.8,-6.81 37.11,-16.62 48.95,-29.31 11.82,-12.71 19.02,-28.04 21.53,-46.01 2.5,-17.96 -0.29,-37.95 -8.41,-59.95 -10.37,-28.52 -23.57,-52.05 -39.61,-70.53 -16.08,-18.49 -33.83,-33.2 -53.33,-44.16 -19.49,-10.89 -40.16,-18.49 -61.9,-22.66 -21.79,-4.18 -43.62,-6.25 -65.37,-6.13 -4.54,0.02 -11.72,-0.07 -21.64,-0.21 -9.9,-0.19 -19.76,-0.23 -29.66,-0.19 -9.87,0.07 -18.53,0.09 -25.91,0.12 -7.42,0.04 -11.12,0.27 -11.06,0.66 l -56.59,-157.07"
         style="fill:#ffffff;fill-opacity:1;fill-rule:nonzero;stroke:none"
         id="path26" /><path
         d="m 4577.67,1229.77 99.99,-0.42 6.17,153 -1.24,0.02 z m 91.04,273.87 116.66,-0.53 8.04,-437.12 -119.73,0.53 1.68,81.43 -153.68,0.66 -56.61,-81.13 -117.27,0.5 320.91,435.66"
         style="fill:#ffffff;fill-opacity:1;fill-rule:nonzero;stroke:none"
         id="path28" /><path
         d="m 4930.9,1383.7 c 8.25,23.23 21.2,42.83 38.89,58.91 17.68,16.04 37.27,29.09 58.76,39.22 21.48,10.07 43.74,17.45 66.78,22.04 23.04,4.56 44.23,6.84 63.58,6.78 33.72,-0.16 63.56,-2.65 89.49,-7.46 25.9,-4.81 46.27,-9.49 61.11,-14.07 -3.38,-10.17 -6.55,-19.05 -9.47,-26.57 -2.93,-7.54 -6.03,-15.69 -9.27,-24.44 -3.25,-8.76 -6.25,-16.82 -8.95,-24.14 -2.72,-7.31 -5.94,-15.9 -9.68,-25.66 -5.34,4.91 -13.03,9.74 -23.1,14.47 -10.08,4.76 -21.13,8.95 -33.15,12.72 -12,3.71 -24.62,6.73 -37.76,9.04 -13.18,2.29 -25.76,3.48 -37.68,3.55 -6.58,0.02 -14.51,-0.07 -23.79,-0.2 -9.28,-0.21 -18.53,-1.37 -27.79,-3.58 -9.23,-2.18 -17.81,-5.84 -25.67,-10.9 -7.86,-5.07 -13.4,-12.29 -16.74,-21.67 -3.23,-8.53 -2.31,-15.79 2.69,-21.76 5.06,-5.91 12.47,-11.46 22.32,-16.6 9.8,-5.16 21.31,-10.1 34.47,-14.84 13.16,-4.77 26.5,-9.9 40,-15.5 13.49,-5.55 26.4,-12.03 38.71,-19.45 12.29,-7.38 22.43,-16.11 30.4,-26.16 7.95,-10.03 12.97,-21.97 15.02,-35.87 2.06,-13.88 -0.22,-30.2 -6.84,-48.92 -8.71,-24.06 -21.05,-44.72 -36.99,-61.98 -15.95,-17.26 -34.59,-31.48 -55.96,-42.59 -21.36,-11.14 -45.02,-19.29 -71.01,-24.49 -25.99,-5.17 -53.16,-7.7 -81.55,-7.59 -26.76,0.14 -49.8,1.46 -69.11,3.97 -19.32,2.53 -35.36,5.27 -48.05,8.17 -12.72,2.92 -22.13,5.73 -28.27,8.41 -6.14,2.68 -9.42,4.02 -9.84,4.02 2.17,5.73 4.18,11.02 6.05,15.9 1.89,4.87 3.89,10.46 6.12,16.81 2.21,6.3 4.62,12.73 7.29,19.23 5.91,15.47 12.18,33.01 18.85,52.57 6.26,-3.7 14.51,-8.25 24.73,-13.57 10.22,-5.38 21.38,-10.5 33.52,-15.48 12.1,-4.95 24.92,-9.09 38.41,-12.39 13.49,-3.33 26.61,-5.04 39.38,-5.07 6.15,-0.04 14.63,0.23 25.36,0.8 10.77,0.57 21.58,2.23 32.56,5.05 10.97,2.81 21.24,7.27 30.82,13.34 9.59,6.06 16.3,14.39 20.14,24.99 3.8,10.6 0.78,19.38 -9.1,26.39 -9.87,6.95 -22.76,13.55 -38.66,19.75 -15.91,6.19 -33.23,12.97 -51.92,20.43 -18.68,7.42 -35.12,16.78 -49.35,28.09 -14.23,11.26 -24.4,25.38 -30.51,42.35 -6.1,16.97 -4.52,38.29 4.76,63.95"
         style="fill:#ffffff;fill-opacity:1;fill-rule:nonzero;stroke:none"
         id="path30" /><path
         d="m 5401.59,1281.82 c -5.98,-16.29 -10.12,-32.93 -12.47,-49.83 -2.32,-16.93 -1.95,-32.34 1.15,-46.23 3.08,-13.9 9.55,-25.37 19.47,-34.34 9.9,-9.04 24.11,-13.6 42.62,-13.68 18.53,-0.07 35.9,4.33 52.12,13.23 16.23,8.91 30.91,20.28 44.1,34.1 13.17,13.78 24.6,29.16 34.33,46.05 9.74,16.88 17.58,33.49 23.57,49.78 5.57,16.31 9.51,32.92 11.87,49.85 2.31,16.89 1.91,32.33 -1.17,46.21 -3.05,13.89 -9.58,25.35 -19.47,34.38 -9.92,9 -24.11,13.55 -42.63,13.66 -18.51,0.07 -35.87,-4.34 -52.11,-13.27 -16.22,-8.89 -30.82,-20.25 -43.78,-34.03 -12.95,-13.84 -24.41,-29.23 -34.35,-46.07 -9.94,-16.93 -17.7,-33.51 -23.25,-49.81 z m -114.79,0.5 c 11.46,31.79 26.84,61.41 46.17,88.86 19.3,27.45 41.92,51.45 67.83,71.95 25.92,20.48 54.5,36.59 85.79,48.28 31.31,11.67 64.23,17.45 98.79,17.29 34.56,-0.13 63.24,-6.2 86.07,-18.11 22.8,-11.93 39.79,-28.24 50.9,-48.9 11.12,-20.65 16.61,-44.76 16.44,-72.31 -0.2,-27.52 -6.05,-57.21 -17.49,-88.96 -11.46,-31.8 -27,-61.43 -46.51,-88.88 -19.53,-27.48 -42.22,-51.45 -68.15,-71.93 -25.89,-20.5 -54.49,-36.61 -85.77,-48.28 -31.3,-11.69 -64.23,-17.48 -98.8,-17.33 -34.55,0.16 -63.26,6.2 -86.05,18.15 -22.81,11.94 -39.69,28.23 -50.61,48.89 -10.93,20.66 -16.29,44.75 -16.1,72.3 0.18,27.54 6.02,57.23 17.49,88.98"
         style="fill:#ffffff;fill-opacity:1;fill-rule:nonzero;stroke:none"
         id="path32" /><path
         d="m 2855.31,863.352 c -25.16,0 -45.63,-20.454 -45.63,-45.622 0,-25.128 20.47,-45.589 45.63,-45.589 25.16,0 45.62,20.461 45.62,45.589 0,25.168 -20.46,45.622 -45.62,45.622 z m 0,-102.34 c -31.3,0 -56.76,25.437 -56.76,56.718 0,31.301 25.46,56.758 56.76,56.758 31.29,0 56.76,-25.457 56.76,-56.758 0,-31.281 -25.47,-56.718 -56.76,-56.718"
         style="fill:#ffffff;fill-opacity:1;fill-rule:nonzero;stroke:none"
         id="path34" /><path
         d="m 2843.97,824.512 h 9.22 c 6.02,0 9.77,0.238 11.28,0.789 1.52,0.5 2.64,1.347 3.47,2.578 0.83,1.223 1.28,2.832 1.28,4.652 0,2.078 -0.54,3.739 -1.71,5.059 -1.09,1.301 -2.62,2.082 -4.69,2.43 -0.98,0.191 -4.03,0.21 -9.11,0.21 h -9.74 z m -12.52,-37.442 v 61.969 h 26.34 c 6.59,0 11.41,-0.559 14.43,-1.719 2.99,-1.058 5.38,-3.011 7.2,-5.898 1.8,-2.844 2.69,-6.094 2.69,-9.762 0,-4.64 -1.36,-8.5 -4.1,-11.512 -2.71,-3.007 -6.79,-4.957 -12.24,-5.738 2.72,-1.551 4.91,-3.281 6.69,-5.191 1.77,-1.899 4.1,-5.239 7.11,-10.059 l 7.59,-12.09 h -14.94 l -9.08,13.508 c -3.24,4.742 -5.42,7.82 -6.61,9.07 -1.18,1.293 -2.4,2.141 -3.77,2.582 -1.29,0.469 -3.4,0.711 -6.24,0.711 h -2.55 V 787.07 h -12.52 v 0"
         style="fill:#ffffff;fill-opacity:1;fill-rule:evenodd;stroke:none"
         id="path36" /><path
         d="m 1839.49,1930.34 c -610.41,0 -1105.224,-281.72 -1105.224,-629.27 0,-347.531 494.814,-629.25 1105.224,-629.25 610.4,0 1105.21,281.719 1105.21,629.25 0,347.55 -494.81,629.27 -1105.21,629.27"
         style="fill:#ffffff;fill-opacity:1;fill-rule:nonzero;stroke:none"
         id="path38" /><path
         d="m 2201.08,1622.44 -39.79,-58.88 c -8.96,4.48 -18.54,6.09 -27.68,5.93 -22.3,-0.28 -37.52,-11.4 -45.63,-33.39 -2,-4.11 -5.91,-16.6 -12.3,-53.58 l 54.68,0.12 -22.56,-62.18 h -42.3 c -9.81,-67.94 -19.51,-133.92 -29.78,-201.88 -13.68,-73.04 -37.71,-131.94 -68.66,-168.27 -39.51,-46.05 -99.49,-72.732 -179.92,-80.095 28.98,32.265 52.75,77.445 71.35,135.645 14.38,43.01 28.34,101.66 38.59,167.44 7.32,49.37 14.03,98.27 21.31,147.16 h -47.95 l 17.62,61.75 40.44,0.59 c 10.48,60.68 29.58,92.46 57.3,115.54 27.73,23.14 73.62,35.68 136.49,36.45 35.09,0.45 59.97,-3.97 78.79,-12.35 v 0"
         style="fill:#e22224;fill-opacity:1;fill-rule:nonzero;stroke:none"
         id="path40" /><path
         d="m 1431.69,1616.25 -3.41,-91.58 c -45.52,39.19 -88.22,58.77 -130.58,58.77 -17.31,0 -32.58,-4.78 -45.79,-14.33 -14.58,-10.94 -21.85,-24.57 -21.85,-40.99 0,-26.44 16.62,-50.81 49.84,-73.12 30.55,-20.07 61.29,-39.85 92.29,-59.46 33.24,-27.28 49.85,-60.13 49.85,-98.39 0,-58.3 -29.58,-103.83 -88.81,-136.62 -48.73,-26.9 -99.63,-40.33 -162,-40.33 -47.86,0 -96.59,10.93 -146.25,32.78 l 18.76,103.7 c 47.84,-47.37 88.51,-75.66 132.25,-75.66 20.05,0 33.11,5.02 48.58,14.99 17.29,11.38 25.99,26.61 25.99,45.7 0,16.81 -16.64,36.83 -49.9,60.07 -53.74,38.64 -84.26,61.4 -91.57,68.22 -33.23,30.94 -49.84,63.42 -49.84,97.55 0,53.69 23.22,95.93 69.68,126.94 40.54,26.81 89.05,40.21 145.53,40.21 18.2,0 44.88,-3.08 79.93,-9.23 35.09,-6.13 60,-9.22 77.3,-9.22 v 0"
         style="fill:#e22224;fill-opacity:1;fill-rule:nonzero;stroke:none"
         id="path42" /><path
         d="m 1702.41,1331.84 c 3.76,26.47 5.49,44.98 5.15,55.47 -2.01,24.24 -11.44,36.31 -28.29,36.31 -39.15,0 -67.09,-58.48 -83.77,-175.38 -7.38,-51.6 1.91,-77.4 27.88,-77.4 21.89,0 40.82,22.34 56.74,67.13 10,28.32 17.39,59.62 22.29,93.87 z m 145.49,0.28 c -9.42,-65.67 -40.29,-111.28 -92.68,-152.8 -50.3,-39.75 -89.54,-59.56 -155.99,-59.56 -50.56,0 -89.66,11.88 -117.22,35.58 -30.4,26.47 -42.1,59.86 -35.13,108.65 9.81,68.91 41,119.49 93.6,159.19 49.48,36.98 90.28,55.48 160.91,55.48 48.76,0 86.45,-11.88 113.13,-35.59 29.08,-26.02 40.2,-63 33.38,-110.95 v 0"
         style="fill:#e22224;fill-opacity:1;fill-rule:evenodd;stroke:none"
         id="path44" /><path
         d="m 2325.44,1478.64 c -8.38,-42.41 -17.27,-87.76 -26.06,-130.17 -15.68,-84.71 -24.24,-147.14 -25.68,-187.16 -0.49,-14.16 -0.41,-32.73 0.68,-40.96 h -168.55 c 9.68,17.78 21.72,55.95 29.2,99.69 7.62,36.9 15.09,73.81 22.3,110.66 8.43,45.57 13.15,83.61 14.21,114.14 0.42,10.88 -0.47,24.2 -1.06,33.8 h 154.96 v 0"
         style="fill:#e22224;fill-opacity:1;fill-rule:evenodd;stroke:none"
         id="path46" /><path
         d="m 2519.28,1301.92 c -17.67,-12.31 -35.31,-24.81 -52.93,-37.55 -19.95,-15.54 -30.19,-33.5 -30.72,-54.02 -0.5,-19.59 10.62,-29.4 33.42,-29.4 20.03,0 33.02,17.79 38.93,53.33 z m 162.45,101.27 c -0.7,-27.74 -7,-69.65 -18.84,-125.82 -12,-56.55 -18.29,-101.98 -18.92,-127.17 -0.2,-8.22 2.44,-22.17 2.72,-30.34 h -158.73 l 6.65,36.91 c -36.62,-25.05 -72.93,-37.58 -108.9,-37.58 -23.67,0 -43.79,4.71 -60.32,17.42 -17.88,14.07 -26.51,34.3 -25.93,57.43 0.9,35.85 22.84,62.21 63.37,79.87 37.26,14.53 74.53,29.05 111.77,43.53 40.17,21.81 60.85,56.03 62.02,102.74 0.11,4.07 -1.96,7.71 -6.17,10.88 -4.27,3.21 -8.49,4.78 -12.58,4.78 -9.99,0 -19.06,-6.74 -27.14,-20.33 -12.82,-19.82 -21.77,-32.03 -26.87,-36.58 -14.49,-13.54 -34.22,-20.28 -59.26,-20.28 -11.85,0 -22.24,3.49 -31.17,10.51 -8.93,7.05 -13.27,16.43 -12.98,28.21 0.86,33.5 29.23,57.28 85.17,71.33 33.92,8.61 74.78,12.92 122.59,12.92 31.45,0 57.06,-5.24 76.81,-15.65 25.2,-13.66 37.42,-34.57 36.71,-62.78 v 0"
         style="fill:#e22224;fill-opacity:1;fill-rule:evenodd;stroke:none"
         id="path48" /><path
         d="m 2234.99,1526.7 c 0,0 245.93,26.76 204.4,106.45 -41.49,79.77 -204.4,-106.45 -204.4,-106.45 v 0"
         style="fill:#e22224;fill-opacity:1;fill-rule:evenodd;stroke:none"
         id="path50" /><path
         d="m 2302.31,790.422 c 2.14,18.137 97.02,164.258 -141.32,157.484 -301.6,-8.687 -753,-254.304 -1088.48,19.172 C 968.699,1062 907.703,1177.05 907.703,1301.07 c 0,325.31 419.307,589.01 931.787,589.01 512.45,0 927.89,-263.7 927.89,-589.01 0,-218.32 -187.11,-408.898 -465.07,-510.648 z M 1839.49,1930.34 c -610.41,0 -1105.224,-281.72 -1105.224,-629.27 0,-347.531 494.814,-629.25 1105.224,-629.25 610.4,0 1105.21,281.719 1105.21,629.25 0,347.55 -494.81,629.27 -1105.21,629.27"
         style="fill:#e22224;fill-opacity:1;fill-rule:nonzero;stroke:none"
         id="path52" /><path
         d="m 1157.99,0 c -19.75,0 -37.32,2.55078 -52.71,7.62891 -15.4,5.07029 -28.04,12.69919 -37.91,22.87109 -9.87,10.1602 -16.71,22.5781 -20.48,37.25 -3.78,14.6719 -4.07,31.4414 -0.87,50.328 2.03,11.902 4.57,24.684 7.63,38.344 3.05,13.637 6.02,26.707 8.92,39.199 6.39,24.981 16.05,46.25 28.98,63.828 12.92,17.571 29.48,31 49.67,40.313 20.18,9.289 44.07,13.937 71.67,13.937 18.87,0 36.08,-2.398 51.63,-7.187 15.54,-4.801 28.6,-11.762 39.21,-20.91 10.6,-9.153 18.22,-20.051 22.87,-32.68 4.65,-12.641 5.52,-26.801 2.62,-42.481 -0.59,-2.613 -1.82,-4.8 -3.71,-6.543 -1.89,-1.738 -4.14,-2.609 -6.75,-2.609 h -50.54 c -3.49,0 -6.17,0.789 -8.06,2.402 -1.89,1.59 -2.99,4.418 -3.27,8.489 0.58,16.84 -3.63,28.539 -12.64,35.082 -9,6.527 -21.05,9.797 -36.16,9.797 -18.01,0 -33.47,-4.95 -46.39,-14.809 -12.93,-9.879 -22.15,-26.148 -27.67,-48.801 -6.1,-23.82 -11.33,-48.219 -15.68,-73.199 -4.08,-22.6484 -2.11,-38.9219 5.88,-48.8008 7.98,-9.8711 20.83,-14.8086 38.56,-14.8086 15.1,0 28.67,3.1875 40.73,9.5899 12.05,6.3789 21.86,18.1406 29.41,35.2895 2.03,4.058 4.14,6.89 6.31,8.492 2.18,1.597 5.16,2.398 8.94,2.398 h 50.54 c 2.61,0 4.65,-0.871 6.1,-2.621 1.45,-1.738 1.89,-3.918 1.31,-6.527 -4.07,-15.1136 -10.18,-28.9729 -18.3,-41.6136 -8.14,-12.6289 -18.38,-23.5976 -30.71,-32.8867 C 1244.76,19.4609 1230.39,12.3398 1213.98,7.41016 1197.56,2.48047 1178.9,0 1157.99,0"
         style="fill:#e22224;fill-opacity:1;fill-rule:nonzero;stroke:none"
         id="path54" /><path
         d="m 1524.83,56.6406 c 17.43,0 32.74,5.0782 45.97,15.25 13.21,10.168 22.58,26.5782 28.09,49.2304 3.2,12.777 6.03,24.758 8.5,35.949 2.47,11.18 4.72,23.008 6.76,35.508 4.06,22.652 2.17,39.063 -5.67,49.231 -7.84,10.16 -20.62,15.25 -38.34,15.25 -17.43,0 -32.67,-5.09 -45.75,-15.25 -13.07,-10.168 -22.51,-26.579 -28.32,-49.231 -2.9,-12.5 -5.59,-24.328 -8.06,-35.508 -2.47,-11.191 -4.86,-23.172 -7.18,-35.949 -4.08,-22.6522 -2.26,-39.0624 5.45,-49.2304 7.68,-10.1718 20.53,-15.25 38.55,-15.25 z M 1520.04,0 c -18.01,0 -34.64,2.48047 -49.89,7.41016 -15.25,4.92964 -28.03,12.33984 -38.34,22.21874 -10.31,9.8711 -17.58,22.2227 -21.78,37.0313 -4.21,14.8086 -4.57,32.2382 -1.09,52.2888 2.02,12.481 4.43,24.903 7.19,37.25 2.75,12.34 5.59,24.903 8.5,37.68 9.58,39.223 26.79,68.992 51.63,89.32 24.83,20.332 57.72,30.5 98.68,30.5 18.29,0 34.92,-2.551 49.88,-7.629 14.95,-5.082 27.67,-12.711 38.13,-22.871 10.45,-10.168 17.78,-22.66 22,-37.469 4.2,-14.808 4.57,-32.101 1.08,-51.851 -2.03,-12.777 -4.43,-25.34 -7.19,-37.68 -2.76,-12.347 -5.59,-24.769 -8.49,-37.25 -9.87,-40.0896 -27.23,-69.9295 -52.06,-89.5388 C 1593.45,9.80078 1560.7,0 1520.04,0"
         style="fill:#e22224;fill-opacity:1;fill-rule:nonzero;stroke:none"
         id="path56" /><path
         d="m 1772.29,4.35938 c -3.2,0 -5.59,1.01953 -7.19,3.05078 -1.6,2.03125 -2.11,4.64064 -1.52,7.83984 l 60.56,283.199 c 0.57,3.192 2.03,5.801 4.35,7.84 2.33,2.031 5.08,3.051 8.28,3.051 h 48.8 c 3.2,0 5.59,-1.02 7.19,-3.051 1.59,-2.039 2.1,-4.648 1.52,-7.84 l -50.1,-235.2693 h 135.06 c 3.2,0 5.59,-1.0195 7.19,-3.0508 1.59,-2.0391 1.97,-4.6484 1.09,-7.8398 L 1979.67,15.25 c -0.58,-3.1992 -2.03,-5.80859 -4.35,-7.83984 -2.33,-2.03125 -5.08,-3.05078 -8.27,-3.05078 h -194.76"
         style="fill:#e22224;fill-opacity:1;fill-rule:nonzero;stroke:none"
         id="path58" /><path
         d="m 2180.09,118.078 h 90.19 l -18.73,125.043 z M 2058.97,4.35938 c -3.49,0 -5.88,1.44921 -7.19,4.35937 -1.3,2.90235 -1.08,5.81255 0.66,8.71095 l 162.95,280.1483 c 1.74,3.192 4.06,5.953 6.96,8.274 2.9,2.316 6.68,3.488 11.33,3.488 h 58.82 c 4.65,0 8.06,-1.172 10.24,-3.488 2.18,-2.321 3.41,-5.082 3.7,-8.274 l 44.01,-280.1483 c 0.87,-4.0703 0.21,-7.2578 -1.97,-9.57814 -2.17,-2.33203 -4.86,-3.49218 -8.05,-3.49218 h -44.88 c -4.07,0 -7.05,1.01953 -8.93,3.05078 -1.9,2.03125 -2.98,4.35934 -3.27,6.96874 l -8.71,47.4922 h -122.87 l -29.19,-48.793 c -1.16,-2.039 -2.97,-3.99997 -5.44,-5.88669 -2.48,-1.89063 -5.74,-2.83203 -9.81,-2.83203 h -48.36"
         style="fill:#e22224;fill-opacity:1;fill-rule:nonzero;stroke:none"
         id="path60" /><path
         d="m 2554.34,186.039 h 61.44 c 13.35,0 24.39,3.41 33.1,10.242 8.72,6.821 14.39,15.61 17,26.36 2.03,10.738 0.65,19.308 -4.15,25.699 -4.78,6.39 -13.86,9.59 -27.22,9.59 H 2569.6 Z M 2526.46,55.7695 h 66.66 c 13.64,0 25.12,3.9922 34.42,11.9805 9.29,7.9883 15.09,17.3516 17.43,28.1016 2.6,11.3284 1.37,20.8394 -3.7,28.5394 -5.09,7.687 -15.34,11.55 -30.73,11.55 h -66.66 z M 2457.18,4.35938 c -3.2,0 -5.59,1.01953 -7.18,3.05078 -1.6,2.03125 -2.11,4.64064 -1.53,7.83984 l 60.13,283.199 c 0.58,3.192 2.1,5.801 4.57,7.84 2.46,2.031 5.29,3.051 8.5,3.051 h 125.04 c 22.65,0 41.31,-3.488 55.98,-10.461 14.67,-6.969 25.12,-16.84 31.37,-29.617 6.25,-12.793 7.63,-27.75 4.14,-44.883 -2.62,-11.328 -6.75,-21.059 -12.41,-29.188 -5.67,-8.132 -11.85,-14.75 -18.52,-19.82 -6.69,-5.09 -12.93,-8.793 -18.74,-11.109 10.17,-5.821 18.3,-14.602 24.41,-26.364 6.09,-11.769 7.4,-25.929 3.91,-42.4761 C 2713.07,77.1211 2706.25,61.1406 2696.37,47.5 2686.5,33.8398 2673.29,23.2383 2656.73,15.6914 2640.17,8.12891 2619.69,4.35938 2595.3,4.35938 h -138.12"
         style="fill:#e22224;fill-opacity:1;fill-rule:nonzero;stroke:none"
         id="path62" /><path
         d="m 2941.24,56.6406 c 17.43,0 32.74,5.0782 45.96,15.25 13.22,10.168 22.58,26.5782 28.1,49.2304 3.19,12.777 6.02,24.758 8.5,35.949 2.47,11.18 4.71,23.008 6.75,35.508 4.07,22.652 2.18,39.063 -5.66,49.231 -7.84,10.16 -20.63,15.25 -38.34,15.25 -17.43,0 -32.68,-5.09 -45.75,-15.25 -13.07,-10.168 -22.51,-26.579 -28.32,-49.231 -2.9,-12.5 -5.6,-24.328 -8.06,-35.508 -2.47,-11.191 -4.86,-23.172 -7.19,-35.949 -4.07,-22.6522 -2.25,-39.0624 5.45,-49.2304 7.69,-10.1718 20.54,-15.25 38.56,-15.25 z M 2936.44,0 c -18.01,0 -34.64,2.48047 -49.88,7.41016 -15.25,4.92964 -28.04,12.33984 -38.34,22.21874 -10.31,9.8711 -17.58,22.2227 -21.79,37.0313 -4.21,14.8086 -4.57,32.2382 -1.08,52.2888 2.02,12.481 4.42,24.903 7.19,37.25 2.75,12.34 5.58,24.903 8.49,37.68 9.58,39.223 26.8,68.992 51.63,89.32 24.84,20.332 57.73,30.5 98.68,30.5 18.3,0 34.93,-2.551 49.89,-7.629 14.95,-5.082 27.66,-12.711 38.12,-22.871 10.45,-10.168 17.79,-22.66 22,-37.469 4.2,-14.808 4.57,-32.101 1.09,-51.851 -2.03,-12.777 -4.44,-25.34 -7.19,-37.68 -2.76,-12.347 -5.6,-24.769 -8.5,-37.25 -9.87,-40.0896 -27.22,-69.9295 -52.06,-89.5388 C 3009.86,9.80078 2977.11,0 2936.44,0"
         style="fill:#e22224;fill-opacity:1;fill-rule:nonzero;stroke:none"
         id="path64" /><path
         d="m 3288.9,171.23 h 55.77 c 15.69,0 28.18,3.622 37.48,10.891 9.28,7.25 15.24,17.43 17.86,30.5 2.9,13.07 1.37,23.379 -4.58,30.93 -5.95,7.551 -16.93,11.328 -32.89,11.328 h -56.21 z M 3194.36,4.35938 c -2.91,0 -5.15,1.01953 -6.75,3.05078 -1.6,2.03125 -2.12,4.64064 -1.53,7.83984 l 60.13,283.199 c 0.57,3.192 2.18,5.801 4.79,7.84 2.62,2.031 5.37,3.051 8.28,3.051 h 115.89 c 36.31,0 63.18,-8.352 80.61,-25.051 17.42,-16.711 22.79,-40.738 16.11,-72.109 -4.65,-21.2 -13.57,-38.918 -26.8,-53.149 -13.21,-14.242 -28.96,-24.84 -47.26,-31.812 l 38.34,-108.9182 c 0.28,-0.8711 0.43,-1.6016 0.43,-2.1797 0,-0.582 -0.15,-1.4492 -0.43,-2.6094 -0.29,-2.332 -1.6,-4.43357 -3.93,-6.32029 -2.32,-1.89063 -4.65,-2.83203 -6.96,-2.83203 h -48.8 c -5.23,0 -8.79,1.3789 -10.67,4.14062 -1.9,2.75 -3.27,5.2891 -4.14,7.6211 l -31.81,99.7699 h -52.71 L 3255.8,15.25 c -0.59,-3.1992 -2.18,-5.80859 -4.8,-7.83984 -2.61,-2.03125 -5.52,-3.05078 -8.71,-3.05078 h -47.93"
         style="fill:#e22224;fill-opacity:1;fill-rule:nonzero;stroke:none"
         id="path66" /><path
         d="m 3639.63,118.078 h 90.18 l -18.73,125.043 z M 3518.5,4.35938 c -3.48,0 -5.88,1.44921 -7.18,4.35937 -1.31,2.90235 -1.09,5.81255 0.65,8.71095 l 162.95,280.1483 c 1.74,3.192 4.06,5.953 6.96,8.274 2.9,2.316 6.68,3.488 11.33,3.488 h 58.82 c 4.65,0 8.06,-1.172 10.24,-3.488 2.18,-2.321 3.41,-5.082 3.7,-8.274 l 44.01,-280.1483 c 0.87,-4.0703 0.21,-7.2578 -1.97,-9.57814 -2.17,-2.33203 -4.86,-3.49218 -8.05,-3.49218 h -44.88 c -4.07,0 -7.05,1.01953 -8.93,3.05078 -1.9,2.03125 -2.98,4.35934 -3.27,6.96874 l -8.71,47.4922 h -122.86 l -29.19,-48.793 c -1.17,-2.039 -2.98,-3.99997 -5.45,-5.88669 -2.47,-1.89063 -5.74,-2.83203 -9.81,-2.83203 h -48.36"
         style="fill:#e22224;fill-opacity:1;fill-rule:nonzero;stroke:none"
         id="path68" /><path
         d="m 3987.3,61 h 50.97 c 14.52,0 26.8,2.1016 36.81,6.3086 10.02,4.2109 18.31,11.043 24.84,20.4805 6.54,9.4414 11.55,21.7109 15.03,36.8199 2.32,8.422 4.21,15.969 5.66,22.661 1.46,6.679 2.83,13.351 4.14,20.031 1.31,6.679 2.69,14.09 4.14,22.23 4.07,21.778 1.89,37.75 -6.53,47.918 -8.43,10.172 -23.53,15.25 -45.31,15.25 h -48.8 z M 3916.72,4.35938 c -3.21,0 -5.6,1.01953 -7.19,3.05078 -1.6,2.03125 -2.11,4.64064 -1.53,7.83984 l 60.13,283.199 c 0.58,3.192 2.1,5.801 4.57,7.84 2.46,2.031 5.29,3.051 8.5,3.051 h 102.82 c 19.17,0 36.59,-2.621 52.29,-7.84 15.68,-5.23 28.81,-12.859 39.42,-22.879 10.6,-10.019 18.09,-22.43 22.44,-37.25 4.36,-14.812 4.8,-31.801 1.31,-50.973 -2.33,-12.789 -4.51,-23.957 -6.54,-33.546 -2.04,-9.582 -4.65,-20.633 -7.85,-33.114 C 4178.41,96.7188 4169.05,74.3594 4157,56.6406 4144.94,38.9219 4129.11,25.7813 4109.51,17.2109 4089.9,8.64063 4065.13,4.35938 4035.22,4.35938 h -118.5"
         style="fill:#e22224;fill-opacity:1;fill-rule:nonzero;stroke:none"
         id="path70" /><path
         d="m 4406.43,56.6406 c 17.43,0 32.75,5.0782 45.97,15.25 13.21,10.168 22.58,26.5782 28.09,49.2304 3.2,12.777 6.03,24.758 8.5,35.949 2.47,11.18 4.72,23.008 6.76,35.508 4.06,22.652 2.18,39.063 -5.67,49.231 -7.84,10.16 -20.62,15.25 -38.34,15.25 -17.43,0 -32.67,-5.09 -45.75,-15.25 -13.06,-10.168 -22.51,-26.579 -28.32,-49.231 -2.9,-12.5 -5.59,-24.328 -8.05,-35.508 -2.47,-11.191 -4.87,-23.172 -7.19,-35.949 -4.07,-22.6522 -2.26,-39.0624 5.45,-49.2304 7.68,-10.1718 20.53,-15.25 38.55,-15.25 z M 4401.64,0 c -18.01,0 -34.64,2.48047 -49.89,7.41016 -15.25,4.92964 -28.03,12.33984 -38.34,22.21874 -10.31,9.8711 -17.57,22.2227 -21.78,37.0313 -4.21,14.8086 -4.57,32.2382 -1.09,52.2888 2.03,12.481 4.43,24.903 7.19,37.25 2.75,12.34 5.59,24.903 8.5,37.68 9.58,39.223 26.79,68.992 51.63,89.32 24.83,20.332 57.72,30.5 98.68,30.5 18.29,0 34.92,-2.551 49.88,-7.629 14.95,-5.082 27.67,-12.711 38.13,-22.871 10.45,-10.168 17.78,-22.66 22,-37.469 4.2,-14.808 4.57,-32.101 1.08,-51.851 -2.03,-12.777 -4.43,-25.34 -7.18,-37.68 -2.77,-12.347 -5.6,-24.769 -8.5,-37.25 -9.87,-40.0896 -27.23,-69.9295 -52.06,-89.5388 C 4475.06,9.80078 4442.3,0 4401.64,0"
         style="fill:#e22224;fill-opacity:1;fill-rule:nonzero;stroke:none"
         id="path72" /><path
         d="m 4754.1,171.23 h 55.77 c 15.68,0 28.17,3.622 37.47,10.891 9.29,7.25 15.24,17.43 17.86,30.5 2.9,13.07 1.38,23.379 -4.58,30.93 -5.95,7.551 -16.92,11.328 -32.89,11.328 h -56.2 z M 4659.56,4.35938 c -2.91,0 -5.16,1.01953 -6.75,3.05078 -1.6,2.03125 -2.12,4.64064 -1.53,7.83984 l 60.12,283.199 c 0.58,3.192 2.18,5.801 4.8,7.84 2.62,2.031 5.37,3.051 8.28,3.051 h 115.89 c 36.31,0 63.17,-8.352 80.6,-25.051 17.43,-16.711 22.8,-40.738 16.12,-72.109 -4.65,-21.2 -13.58,-38.918 -26.8,-53.149 -13.21,-14.242 -28.97,-24.84 -47.27,-31.812 l 38.34,-108.9182 c 0.29,-0.8711 0.43,-1.6016 0.43,-2.1797 0,-0.582 -0.14,-1.4492 -0.43,-2.6094 -0.29,-2.332 -1.6,-4.43357 -3.92,-6.32029 -2.33,-1.89063 -4.65,-2.83203 -6.96,-2.83203 h -48.8 c -5.24,0 -8.79,1.3789 -10.68,4.14062 -1.89,2.75 -3.27,5.2891 -4.14,7.6211 l -31.8,99.7699 h -52.72 L 4720.99,15.25 c -0.58,-3.1992 -2.17,-5.80859 -4.79,-7.83984 -2.62,-2.03125 -5.52,-3.05078 -8.71,-3.05078 h -47.93"
         style="fill:#e22224;fill-opacity:1;fill-rule:nonzero;stroke:none"
         id="path74" /><path
         d="m 5012.02,4.35938 c -3.2,0 -5.6,1.01953 -7.19,3.05078 -1.6,2.03125 -2.11,4.64064 -1.52,7.83984 l 60.12,283.199 c 0.58,3.192 2.1,5.801 4.57,7.84 2.47,2.031 5.3,3.051 8.5,3.051 h 197.36 c 3.2,0 5.59,-1.02 7.19,-3.051 1.59,-2.039 2.11,-4.648 1.52,-7.84 l -6.96,-34.859 c -0.88,-3.199 -2.55,-5.809 -5.01,-7.84 -2.48,-2.031 -5.3,-3.051 -8.49,-3.051 h -140.74 l -14.81,-67.969 h 131.58 c 3.19,0 5.59,-1.019 7.19,-3.05 1.59,-2.032 2.1,-4.641 1.52,-7.84 l -6.97,-32.238 c -0.59,-2.903 -2.11,-5.454 -4.57,-7.633 -2.47,-2.168 -5.3,-3.258 -8.5,-3.258 H 5095.23 L 5080.43,61 h 144.21 c 3.19,0 5.58,-1.0195 7.18,-3.0508 1.59,-2.039 2.1,-4.6484 1.53,-7.8398 L 5225.94,15.25 c -0.58,-3.1992 -2.11,-5.80859 -4.58,-7.83984 -2.47,-2.03125 -5.3,-3.05078 -8.49,-3.05078 h -200.85"
         style="fill:#e22224;fill-opacity:1;fill-rule:nonzero;stroke:none"
         id="path76" /><path
         d="m 5450.75,0 c -27.89,0 -50.76,4 -68.62,11.9805 -17.87,7.9883 -30.65,18.5898 -38.34,31.8086 -7.71,13.2109 -10.4,27.2304 -8.06,42.039 0.28,2.6211 1.37,4.793 3.26,6.543 1.89,1.7383 4.14,2.6094 6.76,2.6094 h 47.92 c 3.77,0 6.53,-0.7305 8.28,-2.1797 1.74,-1.4492 3.19,-3.3399 4.35,-5.6602 0.87,-5.2304 3.12,-10.1718 6.76,-14.8125 3.63,-4.6484 8.93,-8.4297 15.9,-11.3281 6.97,-2.9102 15.97,-4.3594 27.01,-4.3594 18.88,0 33.84,3.0508 44.88,9.1485 11.03,6.1015 17.71,14.3828 20.04,24.832 1.74,7.2578 0.58,13.2189 -3.48,17.8669 -4.07,4.641 -11.26,8.852 -21.57,12.633 -10.32,3.777 -23.9,7.699 -40.74,11.77 -20.91,4.929 -38.05,11.468 -51.41,19.609 -13.36,8.121 -22.59,18.512 -27.67,31.141 -5.08,12.64 -5.73,27.668 -1.95,45.097 5.51,26.141 19.45,46.832 41.82,62.082 22.36,15.25 51.41,22.879 87.13,22.879 18.59,0 35,-2.621 49.24,-7.847 14.23,-5.231 25.99,-12.051 35.29,-20.473 9.29,-8.43 16.04,-17.43 20.26,-27.02 4.21,-9.578 5.45,-18.879 3.7,-27.879 -0.29,-2.609 -1.31,-4.859 -3.05,-6.75 -1.74,-1.89 -4.07,-2.839 -6.97,-2.839 h -50.11 c -2.6,0 -5.01,0.578 -7.18,1.75 -2.18,1.148 -3.71,3.187 -4.57,6.097 0,7.84 -3.78,14.524 -11.33,20.043 -7.56,5.508 -17.43,8.278 -29.63,8.278 -14.23,0 -26.29,-2.547 -36.16,-7.629 -9.88,-5.078 -15.98,-13 -18.3,-23.739 -1.46,-6.972 -0.51,-12.851 2.83,-17.652 3.34,-4.789 9.51,-9 18.52,-12.629 9,-3.64 21.49,-7.488 37.46,-11.551 24.69,-5.23 44.15,-11.91 58.39,-20.039 14.23,-8.14 23.81,-18.371 28.75,-30.711 4.94,-12.347 5.52,-27.238 1.75,-44.6598 -6.1,-29.0508 -21.13,-51.0508 -45.1,-66.0078 C 5522.85,7.48047 5490.83,0 5450.75,0"
         style="fill:#e22224;fill-opacity:1;fill-rule:nonzero;stroke:none"
         id="path78" /></g></g></svg>
