<svg width="13" height="13" viewBox="0 0 13 13" fill="none" xmlns="http://www.w3.org/2000/svg">
<path d="M12.0135 5.03197L12.0137 5.03251C12.0343 5.09614 12.0154 5.1651 11.9648 5.20931L11.9644 5.20967L9.23254 7.60506L9.00868 7.80135L9.07459 8.0917L9.8801 11.6399C9.89497 11.7057 9.86966 11.7725 9.81553 11.8118L9.81548 11.8118C9.76137 11.851 9.69086 11.8536 9.63517 11.8201L9.634 11.8194L6.51759 9.95614L6.26105 9.80276L6.00449 9.9561L2.88694 11.8194L2.88671 11.8195C2.85874 11.8362 2.83003 11.8435 2.80228 11.8435C2.7696 11.8435 2.73603 11.8335 2.70531 11.8113C2.65212 11.7728 2.62638 11.7065 2.64135 11.6399C2.64137 11.6398 2.64138 11.6398 2.64139 11.6397L3.44685 8.0917L3.51275 7.80138L3.28893 7.60509L0.557056 5.20922L0.556108 5.20839C0.506906 5.16546 0.487456 5.09676 0.508261 5.03278C0.529 4.969 0.584529 4.92466 0.65094 4.91844C0.651011 4.91843 0.651083 4.91842 0.651155 4.91842L4.26507 4.59032L4.56235 4.56333L4.67964 4.28884L6.10852 0.944981C6.10857 0.944879 6.10861 0.944777 6.10865 0.944676C6.13565 0.882058 6.19537 0.843506 6.26101 0.843506C6.32682 0.843506 6.38664 0.882272 6.41352 0.944492C6.41357 0.944593 6.41361 0.944695 6.41365 0.944796L7.84236 4.28881L7.95964 4.56333L8.25694 4.59032L11.8711 4.91849L11.8714 4.91852C11.9376 4.92449 11.9931 4.96889 12.0135 5.03197Z" stroke="#E30613"/>
</svg>
