<svg width="48" height="48" viewBox="0 0 48 48" fill="none" xmlns="http://www.w3.org/2000/svg">
<path d="M24 0C19.2533 0 14.6131 1.40758 10.6663 4.04473C6.71954 6.68188 3.6434 10.4302 1.8269 14.8156C0.0103988 19.201 -0.464881 24.0266 0.461164 28.6822C1.38721 33.3377 3.67299 37.6141 7.02945 40.9706C10.3859 44.327 14.6623 46.6128 19.3178 47.5388C23.9734 48.4649 28.799 47.9896 33.1844 46.1731C37.5698 44.3566 41.3181 41.2805 43.9553 37.3337C46.5924 33.3869 48 28.7467 48 24C47.9932 17.6369 45.4624 11.5364 40.963 7.03695C36.4636 2.53756 30.3631 0.00680668 24 0ZM24 44.5714C19.9314 44.5714 15.9541 43.3649 12.5711 41.1045C9.18818 38.8441 6.55149 35.6313 4.99449 31.8723C3.43749 28.1134 3.0301 23.9772 3.82386 19.9867C4.61761 15.9962 6.57685 12.3308 9.45381 9.4538C12.3308 6.57684 15.9963 4.6176 19.9867 3.82385C23.9772 3.03009 28.1134 3.43747 31.8723 4.99448C35.6313 6.55148 38.8441 9.18817 41.1045 12.5711C43.3649 15.9541 44.5714 19.9314 44.5714 24C44.5655 29.4541 42.3963 34.6831 38.5397 38.5397C34.6831 42.3963 29.4541 44.5655 24 44.5714Z" fill="#01834C"/>
<path d="M34.7881 14.2164L18.8572 30.1473L13.2121 24.5022C13.0539 24.3384 12.8648 24.2078 12.6556 24.118C12.4465 24.0281 12.2215 23.9809 11.9939 23.9789C11.7663 23.9769 11.5405 24.0203 11.3299 24.1065C11.1192 24.1927 10.9278 24.32 10.7668 24.4809C10.6059 24.6419 10.4786 24.8333 10.3924 25.044C10.3062 25.2546 10.2628 25.4804 10.2648 25.708C10.2668 25.9356 10.314 26.1606 10.4039 26.3697C10.4937 26.5789 10.6243 26.768 10.7881 26.9262L17.6452 33.7833C17.9667 34.1047 18.4026 34.2852 18.8572 34.2852C19.3118 34.2852 19.7477 34.1047 20.0692 33.7833L37.2121 16.6404C37.5243 16.3171 37.6971 15.8841 37.6932 15.4346C37.6893 14.9851 37.509 14.5552 37.1912 14.2373C36.8733 13.9195 36.4434 13.7392 35.9939 13.7353C35.5444 13.7314 35.1114 13.9042 34.7881 14.2164Z" fill="#01834C"/>
</svg>
