<svg width="76" height="66" viewBox="0 0 76 66" fill="none" xmlns="http://www.w3.org/2000/svg">
    <path opacity="0.08" d="M17.6556 39.5173L14.8965 16.3448H61.7935L54.0694 39.5173H17.6556Z" fill="#E30613"/>
    <path d="M2 4H14L18 40H54L62 16H26" stroke="#E30613" stroke-width="4" stroke-miterlimit="10" stroke-linecap="round" stroke-linejoin="round"/>
    <path d="M20 64C23.3137 64 26 61.3137 26 58C26 54.6863 23.3137 52 20 52C16.6863 52 14 54.6863 14 58C14 61.3137 16.6863 64 20 64Z" stroke="#E30613" stroke-width="4" stroke-miterlimit="10" stroke-linecap="round" stroke-linejoin="round"/>
    <path d="M52 64C55.3137 64 58 61.3137 58 58C58 54.6863 55.3137 52 52 52C48.6863 52 46 54.6863 46 58C46 61.3137 48.6863 64 52 64Z" stroke="#E30613" stroke-width="4" stroke-miterlimit="10" stroke-linecap="round" stroke-linejoin="round"/>
    <circle cx="60.0001" cy="16" r="14.2609" fill="#EEF9F6"/>
    <path d="M60 0C56.8355 0 53.7421 0.938384 51.1109 2.69649C48.4797 4.45459 46.4289 6.95345 45.2179 9.87706C44.0069 12.8007 43.6901 16.0177 44.3074 19.1214C44.9248 22.2251 46.4487 25.0761 48.6863 27.3137C50.9239 29.5513 53.7749 31.0752 56.8786 31.6926C59.9823 32.3099 63.1993 31.9931 66.1229 30.7821C69.0466 29.5711 71.5454 27.5203 73.3035 24.8891C75.0616 22.2579 76 19.1645 76 16C75.9955 11.7579 74.3083 7.6909 71.3087 4.6913C68.3091 1.6917 64.2421 0.00453779 60 0ZM60 29.7143C57.2876 29.7143 54.6361 28.9099 52.3808 27.403C50.1255 25.8961 48.3677 23.7542 47.3297 21.2482C46.2917 18.7423 46.0201 15.9848 46.5492 13.3245C47.0784 10.6642 48.3846 8.22051 50.3025 6.30253C52.2205 4.38456 54.6642 3.0784 57.3245 2.54923C59.9848 2.02006 62.7423 2.29165 65.2482 3.32965C67.7542 4.36765 69.8961 6.12545 71.403 8.38075C72.91 10.6361 73.7143 13.2876 73.7143 16C73.7104 19.636 72.2642 23.122 69.6931 25.6931C67.122 28.2642 63.636 29.7103 60 29.7143Z" fill="#42CFA5"/>
    <path d="M67.1917 9.47761L56.5711 20.0982L52.8077 16.3348C52.7022 16.2256 52.5761 16.1385 52.4367 16.0786C52.2973 16.0187 52.1473 15.9872 51.9956 15.9859C51.8438 15.9846 51.6933 16.0135 51.5529 16.071C51.4124 16.1284 51.2848 16.2133 51.1775 16.3206C51.0702 16.4279 50.9853 16.5555 50.9279 16.6959C50.8704 16.8364 50.8415 16.9869 50.8428 17.1386C50.8441 17.2904 50.8757 17.4404 50.9356 17.5798C50.9955 17.7192 51.0825 17.8453 51.1917 17.9508L55.7631 22.5222C55.9774 22.7364 56.2681 22.8568 56.5711 22.8568C56.8741 22.8568 57.1648 22.7364 57.3791 22.5222L68.8077 11.0936C69.0159 10.8781 69.131 10.5894 69.1284 10.2897C69.1258 9.99007 69.0056 9.70343 68.7937 9.49153C68.5819 9.27964 68.2952 9.15945 67.9956 9.15684C67.6959 9.15424 67.4072 9.26943 67.1917 9.47761Z" fill="#42CFA5"/>
</svg>
    