<svg width="31" height="30" viewBox="0 0 31 30" fill="none" xmlns="http://www.w3.org/2000/svg">
    <circle cx="15.3333" cy="15" r="15" fill="#F0F0F0"/>
    <path d="M17.6666 10H9.33325V17.2223H17.6666V10Z" stroke="#2F2F2F" stroke-linecap="round" stroke-linejoin="round"/>
    <path d="M17.6667 12.7779H19.889L21.5557 14.4445V17.2223H17.6667V12.7779Z" stroke="#2F2F2F" stroke-linecap="round" stroke-linejoin="round"/>
    <path d="M11.8332 19.9999C12.6003 19.9999 13.2221 19.3781 13.2221 18.611C13.2221 17.844 12.6003 17.2221 11.8332 17.2221C11.0662 17.2221 10.4443 17.844 10.4443 18.611C10.4443 19.3781 11.0662 19.9999 11.8332 19.9999Z" stroke="#2F2F2F" stroke-linecap="round" stroke-linejoin="round"/>
    <path d="M19.0556 19.9999C19.8227 19.9999 20.4445 19.3781 20.4445 18.611C20.4445 17.844 19.8227 17.2221 19.0556 17.2221C18.2886 17.2221 17.6667 17.844 17.6667 18.611C17.6667 19.3781 18.2886 19.9999 19.0556 19.9999Z" stroke="#2F2F2F" stroke-linecap="round" stroke-linejoin="round"/>
</svg>