<svg width="797" height="43" viewBox="0 0 797 43" fill="none" xmlns="http://www.w3.org/2000/svg">
    <path d="M46 7L301 7.00002" stroke="#CBCBCB" />
    <path d="M529 7L771 7.00002" stroke="#CBCBCB" />
    <path d="M301 7L532 7.00002" stroke="#CBCBCB" />
    <circle cx="43" cy="7" r="6.5" fill="#FBFCFC" stroke="#E30613" />
    <circle cx="301" cy="7" r="6.5" fill="white" stroke="#CBCBCB" />
    <circle cx="532" cy="7" r="6.5" fill="white" stroke="#CBCBCB" />
    <circle cx="772" cy="7" r="6.5" fill="white" stroke="#CBCBCB" />
    <path d="M1.4243 29.6H7.2203V30.86H2.7923V33.32H6.8723V34.592H2.7923V38H1.4243V29.6ZM8.52595 38H7.07395L10.626 29.6H12.126L15.666 38H14.226L13.482 36.188H9.26995L8.52595 38ZM11.214 31.4L9.73795 34.988H13.002L11.526 31.4C11.462 31.224 11.41 31.068 11.37 30.932C11.33 31.068 11.278 31.224 11.214 31.4ZM15.8731 33.872C15.8731 33.152 16.0011 32.504 16.2571 31.928C16.5131 31.352 16.8531 30.888 17.2771 30.536C17.7011 30.176 18.1731 29.904 18.6931 29.72C19.2131 29.536 19.7571 29.444 20.3251 29.444C21.1811 29.444 21.9771 29.628 22.7131 29.996V31.328C22.1131 30.912 21.3931 30.704 20.5531 30.704C19.6651 30.704 18.8971 30.972 18.2491 31.508C17.6011 32.044 17.2731 32.832 17.2651 33.872C17.2651 34.528 17.4331 35.092 17.7691 35.564C18.1051 36.036 18.5171 36.376 19.0051 36.584C19.4931 36.792 20.0171 36.896 20.5771 36.896C21.4731 36.896 22.2051 36.68 22.7731 36.248V37.604C22.0211 37.972 21.2091 38.156 20.3371 38.156C19.7771 38.156 19.2371 38.068 18.7171 37.892C18.1971 37.708 17.7211 37.444 17.2891 37.1C16.8571 36.756 16.5131 36.304 16.2571 35.744C16.0011 35.184 15.8731 34.56 15.8731 33.872ZM23.4004 29.6H30.3244V30.86H27.5524V38H26.1844V30.86H23.4004V29.6ZM37.242 29.6H38.61V34.892C38.61 35.476 38.51 35.988 38.31 36.428C38.118 36.86 37.85 37.2 37.506 37.448C37.17 37.688 36.794 37.868 36.378 37.988C35.97 38.1 35.522 38.156 35.034 38.156C34.546 38.156 34.094 38.1 33.678 37.988C33.262 37.868 32.882 37.688 32.538 37.448C32.194 37.2 31.922 36.86 31.722 36.428C31.53 35.988 31.434 35.476 31.434 34.892V29.6H32.802V34.82C32.802 36.196 33.546 36.884 35.034 36.884C36.506 36.884 37.242 36.196 37.242 34.82V29.6ZM41.9329 38H40.5649V29.6H43.9249C44.3409 29.6 44.7289 29.644 45.0889 29.732C45.4569 29.82 45.8009 29.964 46.1209 30.164C46.4409 30.356 46.6929 30.628 46.8769 30.98C47.0609 31.332 47.1529 31.748 47.1529 32.228C47.1529 32.932 46.9649 33.488 46.5889 33.896C46.2129 34.296 45.7209 34.568 45.1129 34.712L47.8009 38H46.1569L43.6369 34.856H41.9329V38ZM41.9329 30.848V33.644H43.9849C44.4969 33.644 44.9209 33.536 45.2569 33.32C45.5929 33.104 45.7609 32.748 45.7609 32.252C45.7609 31.756 45.5929 31.4 45.2569 31.184C44.9209 30.96 44.4969 30.848 43.9849 30.848H41.9329ZM49.483 38H48.031L51.583 29.6H53.083L56.623 38H55.183L54.439 36.188H50.227L49.483 38ZM52.171 31.4L50.695 34.988H53.959L52.483 31.4C52.419 31.224 52.367 31.068 52.327 30.932C52.287 31.068 52.235 31.224 52.171 31.4ZM56.8302 33.872C56.8302 33.152 56.9582 32.504 57.2142 31.928C57.4702 31.352 57.8102 30.888 58.2342 30.536C58.6582 30.176 59.1302 29.904 59.6502 29.72C60.1702 29.536 60.7142 29.444 61.2822 29.444C62.1382 29.444 62.9342 29.628 63.6702 29.996V31.328C63.0702 30.912 62.3502 30.704 61.5102 30.704C60.6222 30.704 59.8542 30.972 59.2062 31.508C58.5582 32.044 58.2302 32.832 58.2222 33.872C58.2222 34.528 58.3902 35.092 58.7262 35.564C59.0622 36.036 59.4742 36.376 59.9622 36.584C60.4502 36.792 60.9742 36.896 61.5342 36.896C62.4302 36.896 63.1622 36.68 63.7302 36.248V37.604C62.9782 37.972 62.1662 38.156 61.2942 38.156C60.7342 38.156 60.1942 38.068 59.6742 37.892C59.1542 37.708 58.6782 37.444 58.2462 37.1C57.8142 36.756 57.4702 36.304 57.2142 35.744C56.9582 35.184 56.8302 34.56 56.8302 33.872ZM65.2095 29.6H66.5775V38H65.2095V29.6ZM68.3556 35.42C68.1716 34.908 68.0796 34.368 68.0796 33.8C68.0796 33.232 68.1716 32.692 68.3556 32.18C68.5476 31.668 68.8196 31.208 69.1716 30.8C69.5236 30.384 69.9876 30.056 70.5636 29.816C71.1396 29.568 71.7836 29.444 72.4956 29.444C73.2076 29.444 73.8476 29.568 74.4156 29.816C74.9916 30.056 75.4556 30.384 75.8076 30.8C76.1676 31.208 76.4396 31.668 76.6236 32.18C76.8156 32.692 76.9116 33.232 76.9116 33.8C76.9116 34.368 76.8156 34.908 76.6236 35.42C76.4396 35.932 76.1676 36.396 75.8076 36.812C75.4556 37.22 74.9916 37.548 74.4156 37.796C73.8476 38.036 73.2076 38.156 72.4956 38.156C71.7836 38.156 71.1396 38.036 70.5636 37.796C69.9876 37.548 69.5236 37.22 69.1716 36.812C68.8196 36.396 68.5476 35.932 68.3556 35.42ZM74.7276 35.984C75.2556 35.392 75.5196 34.664 75.5196 33.8C75.5196 32.936 75.2556 32.208 74.7276 31.616C74.2076 31.024 73.4636 30.728 72.4956 30.728C71.5356 30.728 70.7916 31.024 70.2636 31.616C69.7356 32.208 69.4716 32.936 69.4716 33.8C69.4716 34.664 69.7356 35.392 70.2636 35.984C70.7916 36.576 71.5356 36.872 72.4956 36.872C73.4636 36.872 74.2076 36.576 74.7276 35.984ZM72.8796 28.796H71.5716L72.6636 27.02H74.1516L72.8796 28.796ZM79.7845 38H78.4165V29.6H79.7005L84.2245 35.744C84.2165 35.552 84.2125 35.244 84.2125 34.82V29.6H85.5805V38H84.2965L79.7725 31.856C79.7805 32.048 79.7845 32.352 79.7845 32.768V38Z" fill="#2F2F2F" />
    <path d="M283.108 29.6H288.772V30.56H284.116V33.284H288.412V34.244H284.116V37.04H288.844V38H283.108V29.6ZM291.557 38H290.549V29.6H291.485L296.537 36.308V35.588V29.6H297.545V38H296.609L291.557 31.28V32V38ZM303.301 38H302.257L298.777 29.6H299.857L302.773 36.872L305.701 29.6H306.781L303.301 38ZM308.022 29.6H309.03V38H308.022V29.6ZM308.79 28.76H307.746L308.838 26.996H310.038L308.79 28.76ZM310.945 35.396C310.761 34.884 310.669 34.352 310.669 33.8C310.669 33.248 310.761 32.716 310.945 32.204C311.137 31.692 311.409 31.232 311.761 30.824C312.113 30.408 312.573 30.076 313.141 29.828C313.709 29.58 314.349 29.456 315.061 29.456C315.773 29.456 316.413 29.58 316.981 29.828C317.549 30.076 318.009 30.408 318.361 30.824C318.713 31.232 318.981 31.692 319.165 32.204C319.357 32.716 319.453 33.248 319.453 33.8C319.453 34.352 319.357 34.884 319.165 35.396C318.981 35.908 318.713 36.372 318.361 36.788C318.009 37.196 317.549 37.524 316.981 37.772C316.413 38.02 315.773 38.144 315.061 38.144C314.349 38.144 313.709 38.02 313.141 37.772C312.573 37.524 312.113 37.196 311.761 36.788C311.409 36.372 311.137 35.908 310.945 35.396ZM318.217 35.06C318.361 34.66 318.433 34.24 318.433 33.8C318.433 33.36 318.361 32.94 318.217 32.54C318.081 32.14 317.877 31.78 317.605 31.46C317.341 31.14 316.989 30.888 316.549 30.704C316.109 30.512 315.613 30.416 315.061 30.416C314.509 30.416 314.013 30.512 313.573 30.704C313.133 30.888 312.777 31.14 312.505 31.46C312.241 31.78 312.037 32.14 311.893 32.54C311.757 32.94 311.689 33.36 311.689 33.8C311.689 34.24 311.757 34.66 311.893 35.06C312.037 35.46 312.241 35.82 312.505 36.14C312.777 36.46 313.133 36.716 313.573 36.908C314.013 37.092 314.509 37.184 315.061 37.184C315.613 37.184 316.109 37.092 316.549 36.908C316.989 36.716 317.341 36.46 317.605 36.14C317.877 35.82 318.081 35.46 318.217 35.06Z" fill="#CBCBCB" />
    <path d="M745.342 29.6H748.102C749.534 29.6 750.63 29.988 751.39 30.764C752.158 31.532 752.542 32.544 752.542 33.8C752.542 35.056 752.158 36.072 751.39 36.848C750.63 37.616 749.534 38 748.102 38H745.342V29.6ZM750.646 36.188C751.23 35.62 751.522 34.824 751.522 33.8C751.522 32.776 751.23 31.98 750.646 31.412C750.07 30.844 749.222 30.56 748.102 30.56H746.35V37.04H748.102C749.222 37.04 750.07 36.756 750.646 36.188ZM754.202 29.6H759.866V30.56H755.21V33.284H759.506V34.244H755.21V37.04H759.938V38H754.202V29.6ZM760.707 29.6H767.619V30.56H764.667V38H763.659V30.56H760.707V29.6ZM767.996 38H766.904L770.564 29.6H771.68L775.328 38H774.248L773.384 35.972H768.86L767.996 38ZM770.984 30.956L769.256 35.036H772.988L771.248 30.956C771.232 30.916 771.188 30.808 771.116 30.632C771.044 30.816 771 30.924 770.984 30.956ZM776.526 29.6H777.534V37.04H782.19V38H776.526V29.6ZM783.475 29.6H784.483V37.04H789.139V38H783.475V29.6ZM790.424 29.6H796.088V30.56H791.432V33.284H795.728V34.244H791.432V37.04H796.16V38H790.424V29.6Z" fill="#CBCBCB" />
    <path d="M516.147 29.6H519.015C521.391 29.6 522.579 30.504 522.579 32.312C522.579 34.12 521.391 35.024 519.015 35.024H517.155V38H516.147V29.6ZM521.559 32.312C521.559 31.968 521.495 31.68 521.367 31.448C521.239 31.208 521.055 31.028 520.815 30.908C520.583 30.78 520.327 30.692 520.047 30.644C519.767 30.588 519.439 30.56 519.063 30.56H517.155V34.064H519.063C519.839 34.064 520.447 33.936 520.887 33.68C521.335 33.424 521.559 32.968 521.559 32.312ZM523.531 38H522.439L526.099 29.6H527.215L530.863 38H529.783L528.919 35.972H524.395L523.531 38ZM526.519 30.956L524.791 35.036H528.523L526.783 30.956C526.767 30.916 526.723 30.808 526.651 30.632C526.579 30.816 526.535 30.924 526.519 30.956ZM531.181 33.8C531.181 32.88 531.401 32.084 531.841 31.412C532.281 30.732 532.833 30.236 533.497 29.924C534.161 29.612 534.877 29.456 535.645 29.456C536.573 29.456 537.413 29.644 538.165 30.02V31.028C537.517 30.62 536.725 30.416 535.789 30.416C535.333 30.416 534.897 30.484 534.481 30.62C534.065 30.748 533.681 30.944 533.329 31.208C532.985 31.464 532.709 31.816 532.501 32.264C532.301 32.712 532.201 33.224 532.201 33.8C532.201 34.408 532.305 34.94 532.513 35.396C532.721 35.844 533.001 36.196 533.353 36.452C533.705 36.7 534.085 36.884 534.493 37.004C534.909 37.124 535.349 37.184 535.813 37.184C536.413 37.184 536.929 37.08 537.361 36.872V33.536H538.369V37.58C537.553 37.956 536.677 38.144 535.741 38.144C535.141 38.144 534.577 38.064 534.049 37.904C533.521 37.744 533.037 37.5 532.597 37.172C532.165 36.836 531.821 36.38 531.565 35.804C531.309 35.228 531.181 34.56 531.181 33.8ZM539.906 35.396C539.722 34.884 539.63 34.352 539.63 33.8C539.63 33.248 539.722 32.716 539.906 32.204C540.098 31.692 540.37 31.232 540.722 30.824C541.074 30.408 541.534 30.076 542.102 29.828C542.67 29.58 543.31 29.456 544.022 29.456C544.734 29.456 545.374 29.58 545.942 29.828C546.51 30.076 546.97 30.408 547.322 30.824C547.674 31.232 547.942 31.692 548.126 32.204C548.318 32.716 548.414 33.248 548.414 33.8C548.414 34.352 548.318 34.884 548.126 35.396C547.942 35.908 547.674 36.372 547.322 36.788C546.97 37.196 546.51 37.524 545.942 37.772C545.374 38.02 544.734 38.144 544.022 38.144C543.31 38.144 542.67 38.02 542.102 37.772C541.534 37.524 541.074 37.196 540.722 36.788C540.37 36.372 540.098 35.908 539.906 35.396ZM547.178 35.06C547.322 34.66 547.394 34.24 547.394 33.8C547.394 33.36 547.322 32.94 547.178 32.54C547.042 32.14 546.838 31.78 546.566 31.46C546.302 31.14 545.95 30.888 545.51 30.704C545.07 30.512 544.574 30.416 544.022 30.416C543.47 30.416 542.974 30.512 542.534 30.704C542.094 30.888 541.738 31.14 541.466 31.46C541.202 31.78 540.998 32.14 540.854 32.54C540.718 32.94 540.65 33.36 540.65 33.8C540.65 34.24 540.718 34.66 540.854 35.06C540.998 35.46 541.202 35.82 541.466 36.14C541.738 36.46 542.094 36.716 542.534 36.908C542.974 37.092 543.47 37.184 544.022 37.184C544.574 37.184 545.07 37.092 545.51 36.908C545.95 36.716 546.302 36.46 546.566 36.14C546.838 35.82 547.042 35.46 547.178 35.06Z" fill="#CBCBCB" />
</svg>