<svg width="797" height="44" viewBox="0 0 797 44" fill="none" xmlns="http://www.w3.org/2000/svg">
    <path d="M46 8L301 8.00002" stroke="#2F2F2F" />
    <path d="M529 8L771 8.00002" stroke="#2F2F2F" />
    <path d="M301 8L532 8.00002" stroke="#2F2F2F" />
    <circle cx="44" cy="8" r="8" fill="#E30613" />
    <path d="M41 8.57143L42.7143 10.2857L47 6" stroke="white" stroke-linecap="round" />
    <circle cx="302" cy="8" r="8" fill="#E30613" />
    <path d="M299 8.57143L300.714 10.2857L305 6" stroke="white" stroke-linecap="round" />
    <circle cx="532" cy="8" r="8" fill="#E30613" />
    <path d="M529 8.57143L530.714 10.2857L535 6" stroke="white" stroke-linecap="round" />
    <circle cx="772" cy="8" r="6.5" fill="#FBFCFC" stroke="#E30613" />
    <path d="M1.23681 30.6H6.92481V31.56H2.24481V34.452H6.57681V35.412H2.24481V39H1.23681V30.6ZM7.91819 39H6.82619L10.4862 30.6H11.6022L15.2502 39H14.1702L13.3062 36.972H8.78219L7.91819 39ZM10.9062 31.956L9.17819 36.036H12.9102L11.1702 31.956C11.1542 31.916 11.1102 31.808 11.0382 31.632C10.9662 31.816 10.9222 31.924 10.9062 31.956ZM15.5556 34.86C15.5556 33.932 15.7756 33.128 16.2156 32.448C16.6556 31.76 17.2036 31.256 17.8596 30.936C18.5156 30.616 19.2196 30.456 19.9716 30.456C20.8356 30.456 21.6236 30.644 22.3356 31.02V32.028C21.7276 31.62 20.9956 31.416 20.1396 31.416C19.1796 31.416 18.3476 31.712 17.6436 32.304C16.9396 32.888 16.5836 33.74 16.5756 34.86C16.5756 35.572 16.7556 36.188 17.1156 36.708C17.4836 37.228 17.9316 37.604 18.4596 37.836C18.9956 38.068 19.5676 38.184 20.1756 38.184C21.0796 38.184 21.8196 37.98 22.3956 37.572V38.58C21.6676 38.956 20.8556 39.144 19.9596 39.144C19.4236 39.144 18.8956 39.052 18.3756 38.868C17.8556 38.676 17.3836 38.408 16.9596 38.064C16.5356 37.712 16.1956 37.26 15.9396 36.708C15.6836 36.148 15.5556 35.532 15.5556 34.86ZM23.0235 30.6H29.9355V31.56H26.9835V39H25.9755V31.56H23.0235V30.6ZM37.1177 30.6H38.1257V35.928C38.1257 36.504 38.0297 37.008 37.8377 37.44C37.6537 37.864 37.3937 38.2 37.0577 38.448C36.7297 38.688 36.3617 38.864 35.9537 38.976C35.5537 39.088 35.1097 39.144 34.6217 39.144C33.5897 39.144 32.7457 38.888 32.0897 38.376C31.4337 37.864 31.1057 37.048 31.1057 35.928V30.6H32.1137V35.88C32.1137 37.416 32.9497 38.184 34.6217 38.184C36.2857 38.184 37.1177 37.416 37.1177 35.88V30.6ZM41.2448 39H40.2368V30.6H43.5248C44.0768 30.6 44.5768 30.676 45.0248 30.828C45.4728 30.972 45.8568 31.244 46.1768 31.644C46.5048 32.036 46.6688 32.536 46.6688 33.144C46.6688 33.864 46.4608 34.424 46.0448 34.824C45.6288 35.224 45.0888 35.484 44.4248 35.604L47.2688 39H46.0088L43.2608 35.688H41.2448V39ZM41.2448 31.56V34.728H43.5728C44.1648 34.728 44.6568 34.608 45.0488 34.368C45.4488 34.12 45.6488 33.712 45.6488 33.144C45.6488 32.568 45.4488 32.16 45.0488 31.92C44.6568 31.68 44.1648 31.56 43.5728 31.56H41.2448ZM48.6526 39H47.5606L51.2206 30.6H52.3366L55.9846 39H54.9046L54.0406 36.972H49.5166L48.6526 39ZM51.6406 31.956L49.9126 36.036H53.6446L51.9046 31.956C51.8886 31.916 51.8446 31.808 51.7726 31.632C51.7006 31.816 51.6566 31.924 51.6406 31.956ZM56.29 34.86C56.29 33.932 56.51 33.128 56.95 32.448C57.39 31.76 57.938 31.256 58.594 30.936C59.25 30.616 59.954 30.456 60.706 30.456C61.57 30.456 62.358 30.644 63.07 31.02V32.028C62.462 31.62 61.73 31.416 60.874 31.416C59.914 31.416 59.082 31.712 58.378 32.304C57.674 32.888 57.318 33.74 57.31 34.86C57.31 35.572 57.49 36.188 57.85 36.708C58.218 37.228 58.666 37.604 59.194 37.836C59.73 38.068 60.302 38.184 60.91 38.184C61.814 38.184 62.554 37.98 63.13 37.572V38.58C62.402 38.956 61.59 39.144 60.694 39.144C60.158 39.144 59.63 39.052 59.11 38.868C58.59 38.676 58.118 38.408 57.694 38.064C57.27 37.712 56.93 37.26 56.674 36.708C56.418 36.148 56.29 35.532 56.29 34.86ZM64.6938 30.6H65.7018V39H64.6938V30.6ZM67.6168 36.396C67.4328 35.884 67.3408 35.352 67.3408 34.8C67.3408 34.248 67.4328 33.716 67.6168 33.204C67.8088 32.692 68.0808 32.232 68.4328 31.824C68.7848 31.408 69.2448 31.076 69.8128 30.828C70.3808 30.58 71.0208 30.456 71.7328 30.456C72.4448 30.456 73.0848 30.58 73.6528 30.828C74.2208 31.076 74.6808 31.408 75.0328 31.824C75.3848 32.232 75.6528 32.692 75.8368 33.204C76.0288 33.716 76.1248 34.248 76.1248 34.8C76.1248 35.352 76.0288 35.884 75.8368 36.396C75.6528 36.908 75.3848 37.372 75.0328 37.788C74.6808 38.196 74.2208 38.524 73.6528 38.772C73.0848 39.02 72.4448 39.144 71.7328 39.144C71.0208 39.144 70.3808 39.02 69.8128 38.772C69.2448 38.524 68.7848 38.196 68.4328 37.788C68.0808 37.372 67.8088 36.908 67.6168 36.396ZM74.8888 36.06C75.0328 35.66 75.1048 35.24 75.1048 34.8C75.1048 34.36 75.0328 33.94 74.8888 33.54C74.7528 33.14 74.5488 32.78 74.2768 32.46C74.0128 32.14 73.6608 31.888 73.2208 31.704C72.7808 31.512 72.2848 31.416 71.7328 31.416C71.1808 31.416 70.6848 31.512 70.2448 31.704C69.8048 31.888 69.4488 32.14 69.1768 32.46C68.9128 32.78 68.7088 33.14 68.5648 33.54C68.4288 33.94 68.3608 34.36 68.3608 34.8C68.3608 35.24 68.4288 35.66 68.5648 36.06C68.7088 36.46 68.9128 36.82 69.1768 37.14C69.4488 37.46 69.8048 37.716 70.2448 37.908C70.6848 38.092 71.1808 38.184 71.7328 38.184C72.2848 38.184 72.7808 38.092 73.2208 37.908C73.6608 37.716 74.0128 37.46 74.2768 37.14C74.5488 36.82 74.7528 36.46 74.8888 36.06ZM71.9848 29.76H70.9408L72.0328 27.996H73.2328L71.9848 29.76ZM78.78 39H77.772V30.6H78.708L83.76 37.308V36.588V30.6H84.768V39H83.832L78.78 32.28V33V39Z" fill="#2F2F2F" />
    <path d="M283.108 30.6H288.772V31.56H284.116V34.284H288.412V35.244H284.116V38.04H288.844V39H283.108V30.6ZM291.557 39H290.549V30.6H291.485L296.537 37.308V36.588V30.6H297.545V39H296.609L291.557 32.28V33V39ZM303.301 39H302.257L298.777 30.6H299.857L302.773 37.872L305.701 30.6H306.781L303.301 39ZM308.022 30.6H309.03V39H308.022V30.6ZM308.79 29.76H307.746L308.838 27.996H310.038L308.79 29.76ZM310.945 36.396C310.761 35.884 310.669 35.352 310.669 34.8C310.669 34.248 310.761 33.716 310.945 33.204C311.137 32.692 311.409 32.232 311.761 31.824C312.113 31.408 312.573 31.076 313.141 30.828C313.709 30.58 314.349 30.456 315.061 30.456C315.773 30.456 316.413 30.58 316.981 30.828C317.549 31.076 318.009 31.408 318.361 31.824C318.713 32.232 318.981 32.692 319.165 33.204C319.357 33.716 319.453 34.248 319.453 34.8C319.453 35.352 319.357 35.884 319.165 36.396C318.981 36.908 318.713 37.372 318.361 37.788C318.009 38.196 317.549 38.524 316.981 38.772C316.413 39.02 315.773 39.144 315.061 39.144C314.349 39.144 313.709 39.02 313.141 38.772C312.573 38.524 312.113 38.196 311.761 37.788C311.409 37.372 311.137 36.908 310.945 36.396ZM318.217 36.06C318.361 35.66 318.433 35.24 318.433 34.8C318.433 34.36 318.361 33.94 318.217 33.54C318.081 33.14 317.877 32.78 317.605 32.46C317.341 32.14 316.989 31.888 316.549 31.704C316.109 31.512 315.613 31.416 315.061 31.416C314.509 31.416 314.013 31.512 313.573 31.704C313.133 31.888 312.777 32.14 312.505 32.46C312.241 32.78 312.037 33.14 311.893 33.54C311.757 33.94 311.689 34.36 311.689 34.8C311.689 35.24 311.757 35.66 311.893 36.06C312.037 36.46 312.241 36.82 312.505 37.14C312.777 37.46 313.133 37.716 313.573 37.908C314.013 38.092 314.509 38.184 315.061 38.184C315.613 38.184 316.109 38.092 316.549 37.908C316.989 37.716 317.341 37.46 317.605 37.14C317.877 36.82 318.081 36.46 318.217 36.06Z" fill="#2F2F2F" />
    <path d="M745.147 30.6H748.087C749.527 30.6 750.623 30.984 751.375 31.752C752.127 32.52 752.503 33.536 752.503 34.8C752.503 36.064 752.127 37.08 751.375 37.848C750.623 38.616 749.527 39 748.087 39H745.147V30.6ZM750.331 36.996C750.851 36.484 751.111 35.752 751.111 34.8C751.111 33.848 750.851 33.12 750.331 32.616C749.819 32.104 749.067 31.848 748.075 31.848H746.515V37.752H748.075C749.067 37.752 749.819 37.5 750.331 36.996ZM754.041 30.6H759.825V31.848H755.409V34.14H759.465V35.388H755.409V37.752H759.897V39H754.041V30.6ZM760.631 30.6H767.555V31.86H764.783V39H763.415V31.86H760.631V30.6ZM768.28 39H766.828L770.38 30.6H771.88L775.42 39H773.98L773.236 37.188H769.024L768.28 39ZM770.968 32.4L769.492 35.988H772.756L771.28 32.4C771.216 32.224 771.164 32.068 771.124 31.932C771.084 32.068 771.032 32.224 770.968 32.4ZM776.506 30.6H777.874V37.728H782.29V39H776.506V30.6ZM783.479 30.6H784.847V37.728H789.263V39H783.479V30.6ZM790.452 30.6H796.236V31.848H791.82V34.14H795.876V35.388H791.82V37.752H796.308V39H790.452V30.6Z" fill="#2F2F2F" />
    <path d="M516.147 30.6H519.015C521.391 30.6 522.579 31.504 522.579 33.312C522.579 35.12 521.391 36.024 519.015 36.024H517.155V39H516.147V30.6ZM521.559 33.312C521.559 32.968 521.495 32.68 521.367 32.448C521.239 32.208 521.055 32.028 520.815 31.908C520.583 31.78 520.327 31.692 520.047 31.644C519.767 31.588 519.439 31.56 519.063 31.56H517.155V35.064H519.063C519.839 35.064 520.447 34.936 520.887 34.68C521.335 34.424 521.559 33.968 521.559 33.312ZM523.531 39H522.439L526.099 30.6H527.215L530.863 39H529.783L528.919 36.972H524.395L523.531 39ZM526.519 31.956L524.791 36.036H528.523L526.783 31.956C526.767 31.916 526.723 31.808 526.651 31.632C526.579 31.816 526.535 31.924 526.519 31.956ZM531.181 34.8C531.181 33.88 531.401 33.084 531.841 32.412C532.281 31.732 532.833 31.236 533.497 30.924C534.161 30.612 534.877 30.456 535.645 30.456C536.573 30.456 537.413 30.644 538.165 31.02V32.028C537.517 31.62 536.725 31.416 535.789 31.416C535.333 31.416 534.897 31.484 534.481 31.62C534.065 31.748 533.681 31.944 533.329 32.208C532.985 32.464 532.709 32.816 532.501 33.264C532.301 33.712 532.201 34.224 532.201 34.8C532.201 35.408 532.305 35.94 532.513 36.396C532.721 36.844 533.001 37.196 533.353 37.452C533.705 37.7 534.085 37.884 534.493 38.004C534.909 38.124 535.349 38.184 535.813 38.184C536.413 38.184 536.929 38.08 537.361 37.872V34.536H538.369V38.58C537.553 38.956 536.677 39.144 535.741 39.144C535.141 39.144 534.577 39.064 534.049 38.904C533.521 38.744 533.037 38.5 532.597 38.172C532.165 37.836 531.821 37.38 531.565 36.804C531.309 36.228 531.181 35.56 531.181 34.8ZM539.906 36.396C539.722 35.884 539.63 35.352 539.63 34.8C539.63 34.248 539.722 33.716 539.906 33.204C540.098 32.692 540.37 32.232 540.722 31.824C541.074 31.408 541.534 31.076 542.102 30.828C542.67 30.58 543.31 30.456 544.022 30.456C544.734 30.456 545.374 30.58 545.942 30.828C546.51 31.076 546.97 31.408 547.322 31.824C547.674 32.232 547.942 32.692 548.126 33.204C548.318 33.716 548.414 34.248 548.414 34.8C548.414 35.352 548.318 35.884 548.126 36.396C547.942 36.908 547.674 37.372 547.322 37.788C546.97 38.196 546.51 38.524 545.942 38.772C545.374 39.02 544.734 39.144 544.022 39.144C543.31 39.144 542.67 39.02 542.102 38.772C541.534 38.524 541.074 38.196 540.722 37.788C540.37 37.372 540.098 36.908 539.906 36.396ZM547.178 36.06C547.322 35.66 547.394 35.24 547.394 34.8C547.394 34.36 547.322 33.94 547.178 33.54C547.042 33.14 546.838 32.78 546.566 32.46C546.302 32.14 545.95 31.888 545.51 31.704C545.07 31.512 544.574 31.416 544.022 31.416C543.47 31.416 542.974 31.512 542.534 31.704C542.094 31.888 541.738 32.14 541.466 32.46C541.202 32.78 540.998 33.14 540.854 33.54C540.718 33.94 540.65 34.36 540.65 34.8C540.65 35.24 540.718 35.66 540.854 36.06C540.998 36.46 541.202 36.82 541.466 37.14C541.738 37.46 542.094 37.716 542.534 37.908C542.974 38.092 543.47 38.184 544.022 38.184C544.574 38.184 545.07 38.092 545.51 37.908C545.95 37.716 546.302 37.46 546.566 37.14C546.838 36.82 547.042 36.46 547.178 36.06Z" fill="#2F2F2F" />
</svg> 