<svg width="797" height="44" viewBox="0 0 797 44" fill="none" xmlns="http://www.w3.org/2000/svg">
    <path d="M46 8L301 8.00002" stroke="#2F2F2F" />
    <path d="M529 8L771 8.00002" stroke="#CBCBCB" />
    <path d="M301 8L532 8.00002" stroke="#CBCBCB" />
    <circle cx="44" cy="8" r="8" fill="#E30613" />
    <path d="M41 8.57143L42.7143 10.2857L47 6" stroke="white" stroke-linecap="round" />
    <circle cx="301" cy="8" r="6.5" fill="#FBFCFC" stroke="#E30613" />
    <circle cx="532" cy="8" r="6.5" fill="white" stroke="#CBCBCB" />
    <circle cx="772" cy="8" r="6.5" fill="white" stroke="#CBCBCB" />
    <path d="M1.23681 30.6H6.92481V31.56H2.24481V34.452H6.57681V35.412H2.24481V39H1.23681V30.6ZM7.91819 39H6.82619L10.4862 30.6H11.6022L15.2502 39H14.1702L13.3062 36.972H8.78219L7.91819 39ZM10.9062 31.956L9.17819 36.036H12.9102L11.1702 31.956C11.1542 31.916 11.1102 31.808 11.0382 31.632C10.9662 31.816 10.9222 31.924 10.9062 31.956ZM15.5556 34.86C15.5556 33.932 15.7756 33.128 16.2156 32.448C16.6556 31.76 17.2036 31.256 17.8596 30.936C18.5156 30.616 19.2196 30.456 19.9716 30.456C20.8356 30.456 21.6236 30.644 22.3356 31.02V32.028C21.7276 31.62 20.9956 31.416 20.1396 31.416C19.1796 31.416 18.3476 31.712 17.6436 32.304C16.9396 32.888 16.5836 33.74 16.5756 34.86C16.5756 35.572 16.7556 36.188 17.1156 36.708C17.4836 37.228 17.9316 37.604 18.4596 37.836C18.9956 38.068 19.5676 38.184 20.1756 38.184C21.0796 38.184 21.8196 37.98 22.3956 37.572V38.58C21.6676 38.956 20.8556 39.144 19.9596 39.144C19.4236 39.144 18.8956 39.052 18.3756 38.868C17.8556 38.676 17.3836 38.408 16.9596 38.064C16.5356 37.712 16.1956 37.26 15.9396 36.708C15.6836 36.148 15.5556 35.532 15.5556 34.86ZM23.0235 30.6H29.9355V31.56H26.9835V39H25.9755V31.56H23.0235V30.6ZM37.1177 30.6H38.1257V35.928C38.1257 36.504 38.0297 37.008 37.8377 37.44C37.6537 37.864 37.3937 38.2 37.0577 38.448C36.7297 38.688 36.3617 38.864 35.9537 38.976C35.5537 39.088 35.1097 39.144 34.6217 39.144C33.5897 39.144 32.7457 38.888 32.0897 38.376C31.4337 37.864 31.1057 37.048 31.1057 35.928V30.6H32.1137V35.88C32.1137 37.416 32.9497 38.184 34.6217 38.184C36.2857 38.184 37.1177 37.416 37.1177 35.88V30.6ZM41.2448 39H40.2368V30.6H43.5248C44.0768 30.6 44.5768 30.676 45.0248 30.828C45.4728 30.972 45.8568 31.244 46.1768 31.644C46.5048 32.036 46.6688 32.536 46.6688 33.144C46.6688 33.864 46.4608 34.424 46.0448 34.824C45.6288 35.224 45.0888 35.484 44.4248 35.604L47.2688 39H46.0088L43.2608 35.688H41.2448V39ZM41.2448 31.56V34.728H43.5728C44.1648 34.728 44.6568 34.608 45.0488 34.368C45.4488 34.12 45.6488 33.712 45.6488 33.144C45.6488 32.568 45.4488 32.16 45.0488 31.92C44.6568 31.68 44.1648 31.56 43.5728 31.56H41.2448ZM48.6526 39H47.5606L51.2206 30.6H52.3366L55.9846 39H54.9046L54.0406 36.972H49.5166L48.6526 39ZM51.6406 31.956L49.9126 36.036H53.6446L51.9046 31.956C51.8886 31.916 51.8446 31.808 51.7726 31.632C51.7006 31.816 51.6566 31.924 51.6406 31.956ZM56.29 34.86C56.29 33.932 56.51 33.128 56.95 32.448C57.39 31.76 57.938 31.256 58.594 30.936C59.25 30.616 59.954 30.456 60.706 30.456C61.57 30.456 62.358 30.644 63.07 31.02V32.028C62.462 31.62 61.73 31.416 60.874 31.416C59.914 31.416 59.082 31.712 58.378 32.304C57.674 32.888 57.318 33.74 57.31 34.86C57.31 35.572 57.49 36.188 57.85 36.708C58.218 37.228 58.666 37.604 59.194 37.836C59.73 38.068 60.302 38.184 60.91 38.184C61.814 38.184 62.554 37.98 63.13 37.572V38.58C62.402 38.956 61.59 39.144 60.694 39.144C60.158 39.144 59.63 39.052 59.11 38.868C58.59 38.676 58.118 38.408 57.694 38.064C57.27 37.712 56.93 37.26 56.674 36.708C56.418 36.148 56.29 35.532 56.29 34.86ZM64.6938 30.6H65.7018V39H64.6938V30.6ZM67.6168 36.396C67.4328 35.884 67.3408 35.352 67.3408 34.8C67.3408 34.248 67.4328 33.716 67.6168 33.204C67.8088 32.692 68.0808 32.232 68.4328 31.824C68.7848 31.408 69.2448 31.076 69.8128 30.828C70.3808 30.58 71.0208 30.456 71.7328 30.456C72.4448 30.456 73.0848 30.58 73.6528 30.828C74.2208 31.076 74.6808 31.408 75.0328 31.824C75.3848 32.232 75.6528 32.692 75.8368 33.204C76.0288 33.716 76.1248 34.248 76.1248 34.8C76.1248 35.352 76.0288 35.884 75.8368 36.396C75.6528 36.908 75.3848 37.372 75.0328 37.788C74.6808 38.196 74.2208 38.524 73.6528 38.772C73.0848 39.02 72.4448 39.144 71.7328 39.144C71.0208 39.144 70.3808 39.02 69.8128 38.772C69.2448 38.524 68.7848 38.196 68.4328 37.788C68.0808 37.372 67.8088 36.908 67.6168 36.396ZM74.8888 36.06C75.0328 35.66 75.1048 35.24 75.1048 34.8C75.1048 34.36 75.0328 33.94 74.8888 33.54C74.7528 33.14 74.5488 32.78 74.2768 32.46C74.0128 32.14 73.6608 31.888 73.2208 31.704C72.7808 31.512 72.2848 31.416 71.7328 31.416C71.1808 31.416 70.6848 31.512 70.2448 31.704C69.8048 31.888 69.4488 32.14 69.1768 32.46C68.9128 32.78 68.7088 33.14 68.5648 33.54C68.4288 33.94 68.3608 34.36 68.3608 34.8C68.3608 35.24 68.4288 35.66 68.5648 36.06C68.7088 36.46 68.9128 36.82 69.1768 37.14C69.4488 37.46 69.8048 37.716 70.2448 37.908C70.6848 38.092 71.1808 38.184 71.7328 38.184C72.2848 38.184 72.7808 38.092 73.2208 37.908C73.6608 37.716 74.0128 37.46 74.2768 37.14C74.5488 36.82 74.7528 36.46 74.8888 36.06ZM71.9848 29.76H70.9408L72.0328 27.996H73.2328L71.9848 29.76ZM78.78 39H77.772V30.6H78.708L83.76 37.308V36.588V30.6H84.768V39H83.832L78.78 32.28V33V39Z" fill="#2F2F2F" />
    <path d="M283.395 30.6H289.179V31.848H284.763V34.14H288.819V35.388H284.763V37.752H289.251V39H283.395V30.6ZM292.204 39H290.836V30.6H292.12L296.644 36.744C296.636 36.552 296.632 36.244 296.632 35.82V30.6H298V39H296.716L292.192 32.856C292.2 33.048 292.204 33.352 292.204 33.768V39ZM303.924 39H302.508L299.124 30.6H300.6L303.216 37.416L305.832 30.6H307.308L303.924 39ZM308.438 30.6H309.806V39H308.438V30.6ZM309.518 29.796H308.21L309.302 28.02H310.79L309.518 29.796ZM311.584 36.42C311.4 35.908 311.308 35.368 311.308 34.8C311.308 34.232 311.4 33.692 311.584 33.18C311.776 32.668 312.048 32.208 312.4 31.8C312.752 31.384 313.216 31.056 313.792 30.816C314.368 30.568 315.012 30.444 315.724 30.444C316.436 30.444 317.076 30.568 317.644 30.816C318.22 31.056 318.684 31.384 319.036 31.8C319.396 32.208 319.668 32.668 319.852 33.18C320.044 33.692 320.14 34.232 320.14 34.8C320.14 35.368 320.044 35.908 319.852 36.42C319.668 36.932 319.396 37.396 319.036 37.812C318.684 38.22 318.22 38.548 317.644 38.796C317.076 39.036 316.436 39.156 315.724 39.156C315.012 39.156 314.368 39.036 313.792 38.796C313.216 38.548 312.752 38.22 312.4 37.812C312.048 37.396 311.776 36.932 311.584 36.42ZM317.956 36.984C318.484 36.392 318.748 35.664 318.748 34.8C318.748 33.936 318.484 33.208 317.956 32.616C317.436 32.024 316.692 31.728 315.724 31.728C314.764 31.728 314.02 32.024 313.492 32.616C312.964 33.208 312.7 33.936 312.7 34.8C312.7 35.664 312.964 36.392 313.492 36.984C314.02 37.576 314.764 37.872 315.724 37.872C316.692 37.872 317.436 37.576 317.956 36.984Z" fill="#2F2F2F" />
    <path d="M745.342 30.6H748.102C749.534 30.6 750.63 30.988 751.39 31.764C752.158 32.532 752.542 33.544 752.542 34.8C752.542 36.056 752.158 37.072 751.39 37.848C750.63 38.616 749.534 39 748.102 39H745.342V30.6ZM750.646 37.188C751.23 36.62 751.522 35.824 751.522 34.8C751.522 33.776 751.23 32.98 750.646 32.412C750.07 31.844 749.222 31.56 748.102 31.56H746.35V38.04H748.102C749.222 38.04 750.07 37.756 750.646 37.188ZM754.202 30.6H759.866V31.56H755.21V34.284H759.506V35.244H755.21V38.04H759.938V39H754.202V30.6ZM760.707 30.6H767.619V31.56H764.667V39H763.659V31.56H760.707V30.6ZM767.996 39H766.904L770.564 30.6H771.68L775.328 39H774.248L773.384 36.972H768.86L767.996 39ZM770.984 31.956L769.256 36.036H772.988L771.248 31.956C771.232 31.916 771.188 31.808 771.116 31.632C771.044 31.816 771 31.924 770.984 31.956ZM776.526 30.6H777.534V38.04H782.19V39H776.526V30.6ZM783.475 30.6H784.483V38.04H789.139V39H783.475V30.6ZM790.424 30.6H796.088V31.56H791.432V34.284H795.728V35.244H791.432V38.04H796.16V39H790.424V30.6Z" fill="#CBCBCB" />
    <path d="M516.147 30.6H519.015C521.391 30.6 522.579 31.504 522.579 33.312C522.579 35.12 521.391 36.024 519.015 36.024H517.155V39H516.147V30.6ZM521.559 33.312C521.559 32.968 521.495 32.68 521.367 32.448C521.239 32.208 521.055 32.028 520.815 31.908C520.583 31.78 520.327 31.692 520.047 31.644C519.767 31.588 519.439 31.56 519.063 31.56H517.155V35.064H519.063C519.839 35.064 520.447 34.936 520.887 34.68C521.335 34.424 521.559 33.968 521.559 33.312ZM523.531 39H522.439L526.099 30.6H527.215L530.863 39H529.783L528.919 36.972H524.395L523.531 39ZM526.519 31.956L524.791 36.036H528.523L526.783 31.956C526.767 31.916 526.723 31.808 526.651 31.632C526.579 31.816 526.535 31.924 526.519 31.956ZM531.181 34.8C531.181 33.88 531.401 33.084 531.841 32.412C532.281 31.732 532.833 31.236 533.497 30.924C534.161 30.612 534.877 30.456 535.645 30.456C536.573 30.456 537.413 30.644 538.165 31.02V32.028C537.517 31.62 536.725 31.416 535.789 31.416C535.333 31.416 534.897 31.484 534.481 31.62C534.065 31.748 533.681 31.944 533.329 32.208C532.985 32.464 532.709 32.816 532.501 33.264C532.301 33.712 532.201 34.224 532.201 34.8C532.201 35.408 532.305 35.94 532.513 36.396C532.721 36.844 533.001 37.196 533.353 37.452C533.705 37.7 534.085 37.884 534.493 38.004C534.909 38.124 535.349 38.184 535.813 38.184C536.413 38.184 536.929 38.08 537.361 37.872V34.536H538.369V38.58C537.553 38.956 536.677 39.144 535.741 39.144C535.141 39.144 534.577 39.064 534.049 38.904C533.521 38.744 533.037 38.5 532.597 38.172C532.165 37.836 531.821 37.38 531.565 36.804C531.309 36.228 531.181 35.56 531.181 34.8ZM539.906 36.396C539.722 35.884 539.63 35.352 539.63 34.8C539.63 34.248 539.722 33.716 539.906 33.204C540.098 32.692 540.37 32.232 540.722 31.824C541.074 31.408 541.534 31.076 542.102 30.828C542.67 30.58 543.31 30.456 544.022 30.456C544.734 30.456 545.374 30.58 545.942 30.828C546.51 31.076 546.97 31.408 547.322 31.824C547.674 32.232 547.942 32.692 548.126 33.204C548.318 33.716 548.414 34.248 548.414 34.8C548.414 35.352 548.318 35.884 548.126 36.396C547.942 36.908 547.674 37.372 547.322 37.788C546.97 38.196 546.51 38.524 545.942 38.772C545.374 39.02 544.734 39.144 544.022 39.144C543.31 39.144 542.67 39.02 542.102 38.772C541.534 38.524 541.074 38.196 540.722 37.788C540.37 37.372 540.098 36.908 539.906 36.396ZM547.178 36.06C547.322 35.66 547.394 35.24 547.394 34.8C547.394 34.36 547.322 33.94 547.178 33.54C547.042 33.14 546.838 32.78 546.566 32.46C546.302 32.14 545.95 31.888 545.51 31.704C545.07 31.512 544.574 31.416 544.022 31.416C543.47 31.416 542.974 31.512 542.534 31.704C542.094 31.888 541.738 32.14 541.466 32.46C541.202 32.78 540.998 33.14 540.854 33.54C540.718 33.94 540.65 34.36 540.65 34.8C540.65 35.24 540.718 35.66 540.854 36.06C540.998 36.46 541.202 36.82 541.466 37.14C541.738 37.46 542.094 37.716 542.534 37.908C542.974 38.092 543.47 38.184 544.022 38.184C544.574 38.184 545.07 38.092 545.51 37.908C545.95 37.716 546.302 37.46 546.566 37.14C546.838 36.82 547.042 36.46 547.178 36.06Z" fill="#CBCBCB" />
</svg>   