<svg width="797" height="44" viewBox="0 0 797 44" fill="none" xmlns="http://www.w3.org/2000/svg">
    <path d="M46 8L301 8.00002" stroke="#2F2F2F" />
    <path d="M529 8L771 8.00002" stroke="#CBCBCB" />
    <path d="M301 8L532 8.00002" stroke="#2F2F2F" />
    <circle cx="44" cy="8" r="8" fill="#E30613" />
    <path d="M41 8.57143L42.7143 10.2857L47 6" stroke="white" stroke-linecap="round" />
    <circle cx="302" cy="8" r="8" fill="#E30613" />
    <path d="M299 8.57143L300.714 10.2857L305 6" stroke="white" stroke-linecap="round" />
    <circle cx="532" cy="8" r="6.5" fill="#FBFCFC" stroke="#E30613" />
    <circle cx="772" cy="8" r="6.5" fill="white" stroke="#CBCBCB" />
    <path d="M1.23681 30.6H6.92481V31.56H2.24481V34.452H6.57681V35.412H2.24481V39H1.23681V30.6ZM7.91819 39H6.82619L10.4862 30.6H11.6022L15.2502 39H14.1702L13.3062 36.972H8.78219L7.91819 39ZM10.9062 31.956L9.17819 36.036H12.9102L11.1702 31.956C11.1542 31.916 11.1102 31.808 11.0382 31.632C10.9662 31.816 10.9222 31.924 10.9062 31.956ZM15.5556 34.86C15.5556 33.932 15.7756 33.128 16.2156 32.448C16.6556 31.76 17.2036 31.256 17.8596 30.936C18.5156 30.616 19.2196 30.456 19.9716 30.456C20.8356 30.456 21.6236 30.644 22.3356 31.02V32.028C21.7276 31.62 20.9956 31.416 20.1396 31.416C19.1796 31.416 18.3476 31.712 17.6436 32.304C16.9396 32.888 16.5836 33.74 16.5756 34.86C16.5756 35.572 16.7556 36.188 17.1156 36.708C17.4836 37.228 17.9316 37.604 18.4596 37.836C18.9956 38.068 19.5676 38.184 20.1756 38.184C21.0796 38.184 21.8196 37.98 22.3956 37.572V38.58C21.6676 38.956 20.8556 39.144 19.9596 39.144C19.4236 39.144 18.8956 39.052 18.3756 38.868C17.8556 38.676 17.3836 38.408 16.9596 38.064C16.5356 37.712 16.1956 37.26 15.9396 36.708C15.6836 36.148 15.5556 35.532 15.5556 34.86ZM23.0235 30.6H29.9355V31.56H26.9835V39H25.9755V31.56H23.0235V30.6ZM37.1177 30.6H38.1257V35.928C38.1257 36.504 38.0297 37.008 37.8377 37.44C37.6537 37.864 37.3937 38.2 37.0577 38.448C36.7297 38.688 36.3617 38.864 35.9537 38.976C35.5537 39.088 35.1097 39.144 34.6217 39.144C33.5897 39.144 32.7457 38.888 32.0897 38.376C31.4337 37.864 31.1057 37.048 31.1057 35.928V30.6H32.1137V35.88C32.1137 37.416 32.9497 38.184 34.6217 38.184C36.2857 38.184 37.1177 37.416 37.1177 35.88V30.6ZM41.2448 39H40.2368V30.6H43.5248C44.0768 30.6 44.5768 30.676 45.0248 30.828C45.4728 30.972 45.8568 31.244 46.1768 31.644C46.5048 32.036 46.6688 32.536 46.6688 33.144C46.6688 33.864 46.4608 34.424 46.0448 34.824C45.6288 35.224 45.0888 35.484 44.4248 35.604L47.2688 39H46.0088L43.2608 35.688H41.2448V39ZM41.2448 31.56V34.728H43.5728C44.1648 34.728 44.6568 34.608 45.0488 34.368C45.4488 34.12 45.6488 33.712 45.6488 33.144C45.6488 32.568 45.4488 32.16 45.0488 31.92C44.6568 31.68 44.1648 31.56 43.5728 31.56H41.2448ZM48.6526 39H47.5606L51.2206 30.6H52.3366L55.9846 39H54.9046L54.0406 36.972H49.5166L48.6526 39ZM51.6406 31.956L49.9126 36.036H53.6446L51.9046 31.956C51.8886 31.916 51.8446 31.808 51.7726 31.632C51.7006 31.816 51.6566 31.924 51.6406 31.956ZM56.29 34.86C56.29 33.932 56.51 33.128 56.95 32.448C57.39 31.76 57.938 31.256 58.594 30.936C59.25 30.616 59.954 30.456 60.706 30.456C61.57 30.456 62.358 30.644 63.07 31.02V32.028C62.462 31.62 61.73 31.416 60.874 31.416C59.914 31.416 59.082 31.712 58.378 32.304C57.674 32.888 57.318 33.74 57.31 34.86C57.31 35.572 57.49 36.188 57.85 36.708C58.218 37.228 58.666 37.604 59.194 37.836C59.73 38.068 60.302 38.184 60.91 38.184C61.814 38.184 62.554 37.98 63.13 37.572V38.58C62.402 38.956 61.59 39.144 60.694 39.144C60.158 39.144 59.63 39.052 59.11 38.868C58.59 38.676 58.118 38.408 57.694 38.064C57.27 37.712 56.93 37.26 56.674 36.708C56.418 36.148 56.29 35.532 56.29 34.86ZM64.6938 30.6H65.7018V39H64.6938V30.6ZM67.6168 36.396C67.4328 35.884 67.3408 35.352 67.3408 34.8C67.3408 34.248 67.4328 33.716 67.6168 33.204C67.8088 32.692 68.0808 32.232 68.4328 31.824C68.7848 31.408 69.2448 31.076 69.8128 30.828C70.3808 30.58 71.0208 30.456 71.7328 30.456C72.4448 30.456 73.0848 30.58 73.6528 30.828C74.2208 31.076 74.6808 31.408 75.0328 31.824C75.3848 32.232 75.6528 32.692 75.8368 33.204C76.0288 33.716 76.1248 34.248 76.1248 34.8C76.1248 35.352 76.0288 35.884 75.8368 36.396C75.6528 36.908 75.3848 37.372 75.0328 37.788C74.6808 38.196 74.2208 38.524 73.6528 38.772C73.0848 39.02 72.4448 39.144 71.7328 39.144C71.0208 39.144 70.3808 39.02 69.8128 38.772C69.2448 38.524 68.7848 38.196 68.4328 37.788C68.0808 37.372 67.8088 36.908 67.6168 36.396ZM74.8888 36.06C75.0328 35.66 75.1048 35.24 75.1048 34.8C75.1048 34.36 75.0328 33.94 74.8888 33.54C74.7528 33.14 74.5488 32.78 74.2768 32.46C74.0128 32.14 73.6608 31.888 73.2208 31.704C72.7808 31.512 72.2848 31.416 71.7328 31.416C71.1808 31.416 70.6848 31.512 70.2448 31.704C69.8048 31.888 69.4488 32.14 69.1768 32.46C68.9128 32.78 68.7088 33.14 68.5648 33.54C68.4288 33.94 68.3608 34.36 68.3608 34.8C68.3608 35.24 68.4288 35.66 68.5648 36.06C68.7088 36.46 68.9128 36.82 69.1768 37.14C69.4488 37.46 69.8048 37.716 70.2448 37.908C70.6848 38.092 71.1808 38.184 71.7328 38.184C72.2848 38.184 72.7808 38.092 73.2208 37.908C73.6608 37.716 74.0128 37.46 74.2768 37.14C74.5488 36.82 74.7528 36.46 74.8888 36.06ZM71.9848 29.76H70.9408L72.0328 27.996H73.2328L71.9848 29.76ZM78.78 39H77.772V30.6H78.708L83.76 37.308V36.588V30.6H84.768V39H83.832L78.78 32.28V33V39Z" fill="#2F2F2F" />
    <path d="M283.108 30.6H288.772V31.56H284.116V34.284H288.412V35.244H284.116V38.04H288.844V39H283.108V30.6ZM291.557 39H290.549V30.6H291.485L296.537 37.308V36.588V30.6H297.545V39H296.609L291.557 32.28V33V39ZM303.301 39H302.257L298.777 30.6H299.857L302.773 37.872L305.701 30.6H306.781L303.301 39ZM308.022 30.6H309.03V39H308.022V30.6ZM308.79 29.76H307.746L308.838 27.996H310.038L308.79 29.76ZM310.945 36.396C310.761 35.884 310.669 35.352 310.669 34.8C310.669 34.248 310.761 33.716 310.945 33.204C311.137 32.692 311.409 32.232 311.761 31.824C312.113 31.408 312.573 31.076 313.141 30.828C313.709 30.58 314.349 30.456 315.061 30.456C315.773 30.456 316.413 30.58 316.981 30.828C317.549 31.076 318.009 31.408 318.361 31.824C318.713 32.232 318.981 32.692 319.165 33.204C319.357 33.716 319.453 34.248 319.453 34.8C319.453 35.352 319.357 35.884 319.165 36.396C318.981 36.908 318.713 37.372 318.361 37.788C318.009 38.196 317.549 38.524 316.981 38.772C316.413 39.02 315.773 39.144 315.061 39.144C314.349 39.144 313.709 39.02 313.141 38.772C312.573 38.524 312.113 38.196 311.761 37.788C311.409 37.372 311.137 36.908 310.945 36.396ZM318.217 36.06C318.361 35.66 318.433 35.24 318.433 34.8C318.433 34.36 318.361 33.94 318.217 33.54C318.081 33.14 317.877 32.78 317.605 32.46C317.341 32.14 316.989 31.888 316.549 31.704C316.109 31.512 315.613 31.416 315.061 31.416C314.509 31.416 314.013 31.512 313.573 31.704C313.133 31.888 312.777 32.14 312.505 32.46C312.241 32.78 312.037 33.14 311.893 33.54C311.757 33.94 311.689 34.36 311.689 34.8C311.689 35.24 311.757 35.66 311.893 36.06C312.037 36.46 312.241 36.82 312.505 37.14C312.777 37.46 313.133 37.716 313.573 37.908C314.013 38.092 314.509 38.184 315.061 38.184C315.613 38.184 316.109 38.092 316.549 37.908C316.989 37.716 317.341 37.46 317.605 37.14C317.877 36.82 318.081 36.46 318.217 36.06Z" fill="#2F2F2F" />
    <path d="M745.342 30.6H748.102C749.534 30.6 750.63 30.988 751.39 31.764C752.158 32.532 752.542 33.544 752.542 34.8C752.542 36.056 752.158 37.072 751.39 37.848C750.63 38.616 749.534 39 748.102 39H745.342V30.6ZM750.646 37.188C751.23 36.62 751.522 35.824 751.522 34.8C751.522 33.776 751.23 32.98 750.646 32.412C750.07 31.844 749.222 31.56 748.102 31.56H746.35V38.04H748.102C749.222 38.04 750.07 37.756 750.646 37.188ZM754.202 30.6H759.866V31.56H755.21V34.284H759.506V35.244H755.21V38.04H759.938V39H754.202V30.6ZM760.707 30.6H767.619V31.56H764.667V39H763.659V31.56H760.707V30.6ZM767.996 39H766.904L770.564 30.6H771.68L775.328 39H774.248L773.384 36.972H768.86L767.996 39ZM770.984 31.956L769.256 36.036H772.988L771.248 31.956C771.232 31.916 771.188 31.808 771.116 31.632C771.044 31.816 771 31.924 770.984 31.956ZM776.526 30.6H777.534V38.04H782.19V39H776.526V30.6ZM783.475 30.6H784.483V38.04H789.139V39H783.475V30.6ZM790.424 30.6H796.088V31.56H791.432V34.284H795.728V35.244H791.432V38.04H796.16V39H790.424V30.6Z" fill="#CBCBCB" />
    <path d="M516.081 30.6H519.081C521.473 30.6 522.669 31.52 522.669 33.36C522.669 35.2 521.473 36.12 519.081 36.12H517.449V39H516.081V30.6ZM520.701 34.548C521.085 34.324 521.277 33.928 521.277 33.36C521.277 32.792 521.085 32.4 520.701 32.184C520.325 31.96 519.809 31.848 519.153 31.848H517.449V34.872H519.153C519.809 34.872 520.325 34.764 520.701 34.548ZM523.85 39H522.398L525.95 30.6H527.45L530.99 39H529.55L528.806 37.188H524.594L523.85 39ZM526.538 32.4L525.062 35.988H528.326L526.85 32.4C526.786 32.224 526.734 32.068 526.694 31.932C526.654 32.068 526.602 32.224 526.538 32.4ZM531.197 34.8C531.197 34.088 531.325 33.448 531.581 32.88C531.837 32.312 532.181 31.856 532.613 31.512C533.045 31.16 533.525 30.896 534.053 30.72C534.581 30.536 535.133 30.444 535.709 30.444C536.629 30.444 537.477 30.628 538.253 30.996V32.328C537.605 31.912 536.821 31.704 535.901 31.704C534.989 31.704 534.209 31.964 533.561 32.484C532.921 33.004 532.601 33.776 532.601 34.8C532.601 35.376 532.697 35.876 532.889 36.3C533.081 36.716 533.341 37.036 533.669 37.26C533.997 37.484 534.341 37.648 534.701 37.752C535.069 37.856 535.457 37.908 535.865 37.908C536.361 37.908 536.781 37.828 537.125 37.668V34.488H538.457V38.592C537.617 38.968 536.725 39.156 535.781 39.156C535.173 39.156 534.605 39.076 534.077 38.916C533.549 38.748 533.065 38.496 532.625 38.16C532.185 37.824 531.837 37.368 531.581 36.792C531.325 36.216 531.197 35.552 531.197 34.8ZM539.899 36.42C539.715 35.908 539.623 35.368 539.623 34.8C539.623 34.232 539.715 33.692 539.899 33.18C540.091 32.668 540.363 32.208 540.715 31.8C541.067 31.384 541.531 31.056 542.107 30.816C542.683 30.568 543.327 30.444 544.039 30.444C544.751 30.444 545.391 30.568 545.959 30.816C546.535 31.056 546.999 31.384 547.351 31.8C547.711 32.208 547.983 32.668 548.167 33.18C548.359 33.692 548.455 34.232 548.455 34.8C548.455 35.368 548.359 35.908 548.167 36.42C547.983 36.932 547.711 37.396 547.351 37.812C546.999 38.22 546.535 38.548 545.959 38.796C545.391 39.036 544.751 39.156 544.039 39.156C543.327 39.156 542.683 39.036 542.107 38.796C541.531 38.548 541.067 38.22 540.715 37.812C540.363 37.396 540.091 36.932 539.899 36.42ZM546.271 36.984C546.799 36.392 547.063 35.664 547.063 34.8C547.063 33.936 546.799 33.208 546.271 32.616C545.751 32.024 545.007 31.728 544.039 31.728C543.079 31.728 542.335 32.024 541.807 32.616C541.279 33.208 541.015 33.936 541.015 34.8C541.015 35.664 541.279 36.392 541.807 36.984C542.335 37.576 543.079 37.872 544.039 37.872C545.007 37.872 545.751 37.576 546.271 36.984Z" fill="#2F2F2F" />
</svg>
    